G04 #@! TF.GenerationSoftware,KiCad,Pcbnew,(5.1.2-1)-1*
G04 #@! TF.CreationDate,2019-05-15T15:10:05-07:00*
G04 #@! TF.ProjectId,Box2Side2,426f7832-5369-4646-9532-2e6b69636164,rev?*
G04 #@! TF.SameCoordinates,Original*
G04 #@! TF.FileFunction,Profile,NP*
%FSLAX46Y46*%
G04 Gerber Fmt 4.6, Leading zero omitted, Abs format (unit mm)*
G04 Created by KiCad (PCBNEW (5.1.2-1)-1) date 2019-05-15 15:10:05*
%MOMM*%
%LPD*%
G04 APERTURE LIST*
%ADD10C,0.050800*%
G04 APERTURE END LIST*
D10*
X146876209Y-27200017D02*
X138165036Y-27200017D01*
X136429813Y-46772011D02*
G75*
G02X138165036Y-48417278I1713108J69091D01*
G01*
X133617827Y-46772012D02*
X136429813Y-46772012D01*
X148593057Y-25436090D02*
G75*
G02X146876209Y-27200017I-3061J-1714497D01*
G01*
X136429549Y-37628012D02*
X133617827Y-37628012D01*
X133617827Y-37628012D02*
X133617827Y-46772012D01*
X138165037Y-35851360D02*
G75*
G02X136429549Y-37628012I-22120J-1714357D01*
G01*
X148593057Y-22652782D02*
X148593057Y-25436090D01*
X157737032Y-22652782D02*
X148593057Y-22652782D01*
X157737032Y-25404282D02*
X157737032Y-22652782D01*
X159471714Y-27200018D02*
G75*
G02X157737032Y-25404282I-1712568J81379D01*
G01*
X168165053Y-27200017D02*
X159471714Y-27200017D01*
X168165053Y-35851713D02*
X168165053Y-27200017D01*
X169919595Y-37628012D02*
G75*
G02X168165053Y-35851713I-1713367J62294D01*
G01*
X172712262Y-37628012D02*
X169919596Y-37628012D01*
X172712262Y-46772012D02*
X172712262Y-37628012D01*
X169920720Y-46772012D02*
X172712262Y-46772012D01*
X168165054Y-48480823D02*
G75*
G02X169920720Y-46772012I41174J1714006D01*
G01*
X168165053Y-57200008D02*
X168165053Y-48480822D01*
X159473555Y-57200008D02*
X168165053Y-57200008D01*
X157737032Y-58896306D02*
G75*
G02X159473555Y-57200008I22118J1714357D01*
G01*
X157737032Y-61747243D02*
X157737032Y-58896306D01*
X148593057Y-61747243D02*
X157737032Y-61747243D01*
X138165036Y-57200008D02*
X146876229Y-57200008D01*
X138165036Y-48417278D02*
X138165036Y-57200008D01*
X138165036Y-27200017D02*
X138165036Y-35851359D01*
X148593057Y-58864498D02*
X148593057Y-61747243D01*
X146876228Y-57200008D02*
G75*
G02X148593057Y-58864498I1713772J50008D01*
G01*
X89625886Y-27168068D02*
X89625886Y-35819410D01*
X85078677Y-37596063D02*
X85078677Y-46740063D01*
X124173112Y-46740063D02*
X124173112Y-37596063D01*
X121381570Y-46740063D02*
X124173112Y-46740063D01*
X109197882Y-61715294D02*
X109197882Y-58864357D01*
X100053907Y-61715294D02*
X109197882Y-61715294D01*
X89625886Y-48385329D02*
X89625886Y-57168059D01*
X110932564Y-27168069D02*
G75*
G02X109197882Y-25372333I-1712568J81379D01*
G01*
X119625903Y-27168068D02*
X110932564Y-27168068D01*
X119625903Y-35819764D02*
X119625903Y-27168068D01*
X89625887Y-35819411D02*
G75*
G02X87890399Y-37596063I-22120J-1714357D01*
G01*
X98337059Y-27168068D02*
X89625886Y-27168068D01*
X121380445Y-37596063D02*
G75*
G02X119625903Y-35819764I-1713367J62294D01*
G01*
X124173112Y-37596063D02*
X121380446Y-37596063D01*
X100053907Y-25404141D02*
G75*
G02X98337059Y-27168068I-3061J-1714497D01*
G01*
X87890663Y-46740062D02*
G75*
G02X89625886Y-48385329I1713108J69091D01*
G01*
X89625886Y-57168059D02*
X98337079Y-57168059D01*
X100053907Y-58832549D02*
X100053907Y-61715294D01*
X98337078Y-57168059D02*
G75*
G02X100053907Y-58832549I1713772J50008D01*
G01*
X85078677Y-46740063D02*
X87890663Y-46740063D01*
X87890399Y-37596063D02*
X85078677Y-37596063D01*
X119625904Y-48448874D02*
G75*
G02X121381570Y-46740063I41174J1714006D01*
G01*
X119625903Y-57168059D02*
X119625903Y-48448873D01*
X100053907Y-22620833D02*
X100053907Y-25404141D01*
X109197882Y-22620833D02*
X100053907Y-22620833D01*
X109197882Y-25372333D02*
X109197882Y-22620833D01*
X110934405Y-57168059D02*
X119625903Y-57168059D01*
X109197882Y-58864357D02*
G75*
G02X110934405Y-57168059I22118J1714357D01*
G01*
M02*
