0
SECTION
2
HEADER
9
$INSUNITS
70
1
0
ENDSEC
0
SECTION
2
TABLES
0
TABLE
2
LAYER
0
ENDTAB
0
ENDSEC
0
SECTION
2
ENTITIES
0
LINE
8
front_outsideCutPath
10
0
20
7.653
11
0
21
0.125
0
LINE
8
front_outsideCutPath
10
0
20
0.125
11
8
21
0.125
0
LINE
8
front_outsideCutPath
10
8
20
0.125
11
8
21
7.653
0
LINE
8
front_outsideCutPath
10
8
20
7.653
11
0
21
7.653
0
LINE
8
front_labelLayer
10
2.7528074
20
4.1261039
11
2.7528074
21
4.0312687
0
LINE
8
front_labelLayer
10
2.7528074
20
4.0312687
11
2.5476988
21
4.0312687
0
LINE
8
front_labelLayer
10
2.5476988
20
4.0312687
11
2.5476988
21
3.3203726
0
LINE
8
front_labelLayer
10
2.5476988
20
3.3203726
11
2.4256629
21
3.3203726
0
LINE
8
front_labelLayer
10
2.4256629
20
3.3203726
11
2.4256629
21
4.0312687
0
LINE
8
front_labelLayer
10
2.4256629
20
4.0312687
11
2.2815723
21
4.0312687
0
LINE
8
front_labelLayer
10
2.2815723
20
4.0312687
11
2.2815723
21
4.0864054
0
LINE
8
front_labelLayer
10
2.2815723
20
4.0864054
11
2.4256629
21
4.1305148
0
LINE
8
front_labelLayer
10
2.4256629
20
4.1305148
11
2.4256629
21
4.1753594
0
LINE
8
front_labelLayer
10
2.8351449
20
4.446632
11
2.8035332
21
4.3488562
0
LINE
8
front_labelLayer
10
2.5476988
20
4.1783
11
2.5476988
21
4.1261039
0
LINE
8
front_labelLayer
10
2.5476988
20
4.1261039
11
2.7528074
21
4.1261039
0
ARC
8
front_labelLayer
10
2.9202312
20
4.1810444
40
0.494601
50
167.5774962
51
180.6585875
0
ARC
8
front_labelLayer
10
2.6876541
20
4.2352686
40
0.2558212
50
141.7433589
51
168.2321592
0
ARC
8
front_labelLayer
10
2.649785
20
4.2550343
40
0.2139931
50
98.2550312
51
139.6204183
0
ARC
8
front_labelLayer
10
2.6830335
20
4.1014412
40
0.3709273
50
89.6695122
51
99.9314193
0
ARC
8
front_labelLayer
10
2.6831275
20
4.0793742
40
0.3929936
50
81.5643174
51
89.7017711
0
ARC
8
front_labelLayer
10
2.6555094
20
3.8866853
40
0.5876501
50
75.9738018
51
81.6567463
0
ARC
8
front_labelLayer
10
2.6080942
20
3.6900171
40
0.7899481
50
73.2961557
51
76.0945008
0
ARC
8
front_labelLayer
10
2.6200226
20
3.7853655
40
0.5926195
50
71.9612572
51
76.5916228
0
ARC
8
front_labelLayer
10
2.6660027
20
3.9804032
40
0.3922361
50
76.5184965
51
83.0217139
0
ARC
8
front_labelLayer
10
2.6820198
20
4.109212
40
0.2624356
50
83.0760997
51
89.79308
0
ARC
8
front_labelLayer
10
2.6814916
20
4.2070666
40
0.1645861
50
89.4861815
51
103.419383
0
ARC
8
front_labelLayer
10
2.666653
20
4.26408
40
0.1056924
50
102.7677545
51
144.3380908
0
ARC
8
front_labelLayer
10
2.6965438
20
4.2448469
40
0.1412023
50
145.0685229
51
162.1800009
0
ARC
8
front_labelLayer
10
2.7990322
20
4.2103636
40
0.2493305
50
161.8434469
51
171.7845233
0
ARC
8
front_labelLayer
10
2.9662013
20
4.1852566
40
0.4183727
50
171.6528369
51
178.4383851
0
ARC
8
front_labelLayer
10
3.1236955
20
4.1785391
40
0.5759966
50
178.1973698
51
180.0237874
0
LINE
8
front_labelLayer
10
3.3637223
20
4.1319851
11
3.3468137
21
4.0187711
0
LINE
8
front_labelLayer
10
3.0218746
20
3.7526445
11
3.0218746
21
3.3203726
0
LINE
8
front_labelLayer
10
3.0218746
20
3.3203726
11
2.8998387
21
3.3203726
0
LINE
8
front_labelLayer
10
2.8998387
20
3.3203726
11
2.8998387
21
4.1261039
0
LINE
8
front_labelLayer
10
2.8998387
20
4.1261039
11
3.0005551
21
4.1261039
0
LINE
8
front_labelLayer
10
3.0005551
20
4.1261039
11
3.014523
21
3.9768672
0
LINE
8
front_labelLayer
10
3.014523
20
3.9768672
11
3.0204043
21
3.9768672
0
ARC
8
front_labelLayer
10
3.2686715
20
3.5805872
40
0.5602212
50
84.992264
51
90.1283197
0
ARC
8
front_labelLayer
10
3.2821295
20
3.7313424
40
0.4088667
50
78.48887
51
85.0269088
0
ARC
8
front_labelLayer
10
3.2298796
20
3.4936648
40
0.5379686
50
77.445847
51
81.635539
0
ARC
8
front_labelLayer
10
3.2533357
20
3.6553278
40
0.3746132
50
81.5880593
51
87.1915664
0
ARC
8
front_labelLayer
10
3.2584295
20
3.7436519
40
0.2861465
50
87.343754
51
89.9668702
0
ARC
8
front_labelLayer
10
3.2572427
20
3.8183505
40
0.2114522
50
89.633587
51
137.0881036
0
ARC
8
front_labelLayer
10
3.309193
20
3.7599425
40
0.2893641
50
135.6213941
51
138.8373618
0
ARC
8
front_labelLayer
10
3.3015326
20
3.7674164
40
0.2786783
50
138.9575739
51
174.5422187
0
ARC
8
front_labelLayer
10
3.392276
20
3.7532152
40
0.370402
50
173.6904827
51
180.0882775
0
ARC
8
front_labelLayer
10
3.379466
20
3.774573
40
0.4121265
50
139.4140687
51
150.6032329
0
ARC
8
front_labelLayer
10
3.3055661
20
3.8378968
40
0.3148069
50
124.2321701
51
139.4161933
0
ARC
8
front_labelLayer
10
3.266057
20
3.8975347
40
0.2432761
50
89.6797397
51
124.440474
0
ARC
8
front_labelLayer
10
3.5795386
20
3.7197229
40
0.6303628
50
349.176228
51
0.3863507
0
ARC
8
front_labelLayer
10
3.7917651
20
3.6774159
40
0.4139705
50
330.2506512
51
349.4115893
0
ARC
8
front_labelLayer
10
3.8570748
20
3.6434703
40
0.3404371
50
318.1441117
51
329.7566163
0
ARC
8
front_labelLayer
10
3.8688669
20
3.6340208
40
0.3253498
50
278.895867
51
317.9979142
0
ARC
8
front_labelLayer
10
3.8384919
20
3.7795615
40
0.4738964
50
269.7504336
51
279.8030893
0
ARC
8
front_labelLayer
10
3.8335677
20
3.6975542
40
0.3918951
50
253.5437532
51
270.4181526
0
ARC
8
front_labelLayer
10
3.8205234
20
3.6470916
40
0.3398092
50
238.8116123
51
253.2427324
0
ARC
8
front_labelLayer
10
3.8163104
20
3.6386208
40
0.3303819
50
207.7946636
51
238.6758887
0
ARC
8
front_labelLayer
10
3.8767457
20
3.6756299
40
0.4011278
50
205.6557759
51
208.445727
0
ARC
8
front_labelLayer
10
3.9232547
20
3.6950091
40
0.45145
50
188.9101559
51
205.3171573
0
ARC
8
front_labelLayer
10
4.0800897
20
3.7215715
40
0.6105097
50
179.7745855
51
189.0931989
0
ARC
8
front_labelLayer
10
4.1032159
20
3.7282643
40
0.6336456
50
169.2443241
51
180.3879933
0
ARC
8
front_labelLayer
10
3.8880299
20
3.7707983
40
0.4143056
50
150.7111053
51
169.4695287
0
ARC
8
front_labelLayer
10
3.8193466
20
3.806068
40
0.3371601
50
138.1760714
51
150.2285183
0
ARC
8
front_labelLayer
10
3.8079127
20
3.8148423
40
0.3227903
50
99.175974
51
137.9832932
0
ARC
8
front_labelLayer
10
3.8393611
20
3.6668386
40
0.4739734
50
89.732516
51
100.0759017
0
ARC
8
front_labelLayer
10
3.8456471
20
3.7307519
40
0.4100754
50
73.522333
51
90.5691298
0
ARC
8
front_labelLayer
10
3.8696959
20
3.8181291
40
0.3194702
50
41.1445786
51
73.213369
0
ARC
8
front_labelLayer
10
3.8237872
20
3.7786723
40
0.3800031
50
13.5015181
51
41.0702154
0
ARC
8
front_labelLayer
10
3.6464369
20
3.7322612
40
0.5633001
50
1.1277375
51
13.8801366
0
ARC
8
front_labelLayer
10
3.4943477
20
3.724082
40
0.7155394
50
359.9913048
51
1.5428647
0
ARC
8
front_labelLayer
10
4.2140042
20
3.7208019
40
0.6179807
50
179.7059506
51
187.9161579
0
ARC
8
front_labelLayer
10
3.9873609
20
3.6882442
40
0.3890146
50
187.7639801
51
200.0974721
0
ARC
8
front_labelLayer
10
3.8624929
20
3.6424947
40
0.2560294
50
200.0847371
51
216.9128887
0
ARC
8
front_labelLayer
10
3.8168911
20
3.6099342
40
0.2000172
50
217.3009703
51
261.7098218
0
ARC
8
front_labelLayer
10
3.8380593
20
3.7109528
40
0.3030995
50
260.5034312
51
270.247464
0
ARC
8
front_labelLayer
10
3.8420977
20
3.6913008
40
0.2834577
50
269.4482992
51
284.7257233
0
ARC
8
front_labelLayer
10
3.8645381
20
3.6080797
40
0.1972669
50
284.5662274
51
322.6333692
0
ARC
8
front_labelLayer
10
3.8120721
20
3.6459835
40
0.2619751
50
323.0090153
51
342.6390773
0
ARC
8
front_labelLayer
10
3.6620023
20
3.6950294
40
0.4198482
50
342.3617371
51
353.7536788
0
ARC
8
front_labelLayer
10
3.440587
20
3.7217153
40
0.6428572
50
353.5364903
51
0.2012557
0
ARC
8
front_labelLayer
10
3.4745258
20
3.7270799
40
0.6089224
50
359.7076971
51
7.8972041
0
ARC
8
front_labelLayer
10
3.6975432
20
3.7590507
40
0.3836288
50
7.7439931
51
20.0691388
0
ARC
8
front_labelLayer
10
3.8218037
20
3.8046504
40
0.2512659
50
20.0257343
51
37.4351073
0
ARC
8
front_labelLayer
10
3.8630328
20
3.833906
40
0.2007532
50
37.9578045
51
80.4005729
0
ARC
8
front_labelLayer
10
3.8396034
20
3.729357
40
0.3077976
50
79.345638
51
90.3174511
0
ARC
8
front_labelLayer
10
3.8352644
20
3.7467315
40
0.2904304
50
89.48043
51
103.8803909
0
ARC
8
front_labelLayer
10
3.8108612
20
3.8396606
40
0.1943656
50
103.468481
51
142.311999
0
ARC
8
front_labelLayer
10
3.8583055
20
3.8062939
40
0.2523233
50
142.9025957
51
162.3748708
0
ARC
8
front_labelLayer
10
4.0078165
20
3.7564725
40
0.4099072
50
162.0655976
51
173.1672197
0
ARC
8
front_labelLayer
10
4.2408702
20
3.7267478
40
0.6448445
50
173.0084709
51
180.2465147
0
LINE
8
front_labelLayer
10
5.0972207
20
3.3203726
11
4.9751848
21
3.3203726
0
LINE
8
front_labelLayer
10
4.9751848
20
3.3203726
11
4.9751848
21
3.8415984
0
LINE
8
front_labelLayer
10
4.5458535
20
3.7430875
11
4.5458535
21
3.3203726
0
LINE
8
front_labelLayer
10
4.5458535
20
3.3203726
11
4.4238176
21
3.3203726
0
LINE
8
front_labelLayer
10
4.4238176
20
3.3203726
11
4.4238176
21
4.1261039
0
LINE
8
front_labelLayer
10
4.4238176
20
4.1261039
11
4.5230637
21
4.1261039
0
LINE
8
front_labelLayer
10
4.5230637
20
4.1261039
11
4.5429129
21
4.0158304
0
LINE
8
front_labelLayer
10
4.5429129
20
4.0158304
11
4.5487941
21
4.0158304
0
LINE
8
front_labelLayer
10
5.0972207
20
3.8460094
11
5.0972207
21
3.3203726
0
ARC
8
front_labelLayer
10
4.6302281
20
3.843578
40
0.3449624
50
359.6712081
51
8.6875882
0
ARC
8
front_labelLayer
10
4.7580773
20
3.8638529
40
0.2155186
50
8.4932284
51
22.6579384
0
ARC
8
front_labelLayer
10
4.8230402
20
3.8908492
40
0.1451697
50
22.7024609
51
42.34232
0
ARC
8
front_labelLayer
10
4.83034
20
3.8941333
40
0.1375849
50
43.3790761
51
71.5387251
0
ARC
8
front_labelLayer
10
4.8030359
20
3.8178415
40
0.2186038
50
71.0826452
51
84.3692315
0
ARC
8
front_labelLayer
10
4.7907802
20
3.7136412
40
0.3235098
50
84.0198422
51
90.1513915
0
ARC
8
front_labelLayer
10
4.7873038
20
3.6678044
40
0.3693549
50
89.5933248
51
100.3715651
0
ARC
8
front_labelLayer
10
4.7612035
20
3.8047557
40
0.2299445
50
100.1178048
51
118.1601998
0
ARC
8
front_labelLayer
10
4.7348976
20
3.8563393
40
0.172056
50
118.5439028
51
139.1928769
0
ARC
8
front_labelLayer
10
4.7578349
20
3.8409472
40
0.1995045
50
140.1519697
51
160.3145962
0
ARC
8
front_labelLayer
10
4.8963446
20
3.7890692
40
0.3474014
50
159.9536772
51
171.3799508
0
ARC
8
front_labelLayer
10
5.1225801
20
3.7527046
40
0.5765355
50
171.1766789
51
178.3217705
0
ARC
8
front_labelLayer
10
5.3275978
20
3.7434102
40
0.7817444
50
178.0809201
51
180.0236522
0
ARC
8
front_labelLayer
10
4.7575556
20
3.8836146
40
0.247108
50
116.9443235
51
147.6525181
0
ARC
8
front_labelLayer
10
4.7831861
20
3.840765
40
0.2969399
50
115.805813
51
117.6065621
0
ARC
8
front_labelLayer
10
4.7964249
20
3.8099365
40
0.3304607
50
94.3226249
51
115.5454207
0
ARC
8
front_labelLayer
10
4.8043325
20
3.7412761
40
0.399531
50
89.9575459
51
94.711263
0
ARC
8
front_labelLayer
10
4.807604
20
3.6589926
40
0.4818236
50
80.5586375
51
90.3538286
0
ARC
8
front_labelLayer
10
4.8377159
20
3.8334132
40
0.3048281
50
65.1093854
51
80.7639637
0
ARC
8
front_labelLayer
10
4.8729131
20
3.9113736
40
0.2192969
50
46.5583548
51
64.8782505
0
ARC
8
front_labelLayer
10
4.8757283
20
3.9194927
40
0.2114957
50
19.3849843
51
45.5996206
0
ARC
8
front_labelLayer
10
4.7533662
20
3.8735813
40
0.3421703
50
6.9635693
51
19.8362587
0
ARC
8
front_labelLayer
10
4.5646655
20
3.8482123
40
0.5325596
50
359.7629979
51
7.2114627
0
LINE
8
front_labelLayer
10
5.7184277
20
3.421089
11
5.7184277
21
3.3277242
0
LINE
8
front_labelLayer
10
5.3567309
20
3.5519469
11
5.3567309
21
4.0312687
0
LINE
8
front_labelLayer
10
5.3567309
20
4.0312687
11
5.2413113
21
4.0312687
0
LINE
8
front_labelLayer
10
5.2413113
20
4.0312687
11
5.2413113
21
4.0900812
0
LINE
8
front_labelLayer
10
5.2413113
20
4.0900812
11
5.3567309
21
4.140807
0
LINE
8
front_labelLayer
10
5.3567309
20
4.140807
11
5.4081918
21
4.3128336
0
LINE
8
front_labelLayer
10
5.4081918
20
4.3128336
11
5.4787668
21
4.3128336
0
LINE
8
front_labelLayer
10
5.4787668
20
4.3128336
11
5.4787668
21
4.1261039
0
LINE
8
front_labelLayer
10
5.4787668
20
4.1261039
11
5.7125465
21
4.1261039
0
LINE
8
front_labelLayer
10
5.7125465
20
4.1261039
11
5.7125465
21
4.0312687
0
LINE
8
front_labelLayer
10
5.7125465
20
4.0312687
11
5.4787668
21
4.0312687
0
LINE
8
front_labelLayer
10
5.4787668
20
4.0312687
11
5.4787668
21
3.5570929
0
ARC
8
front_labelLayer
10
5.6089912
20
3.8071556
40
0.4007705
50
269.8803528
51
278.3030852
0
ARC
8
front_labelLayer
10
5.6130907
20
3.7741618
40
0.3675314
50
278.4134789
51
279.0090524
0
ARC
8
front_labelLayer
10
5.5678795
20
4.0630377
40
0.6599235
50
278.9585396
51
280.5105525
0
ARC
8
front_labelLayer
10
5.6106469
20
3.8335362
40
0.4264712
50
280.4856997
51
282.6266549
0
ARC
8
front_labelLayer
10
5.6482902
20
3.6663033
40
0.2550542
50
282.5870691
51
285.579322
0
ARC
8
front_labelLayer
10
5.6672494
20
3.5965557
40
0.1827778
50
285.7265414
51
286.2603751
0
ARC
8
front_labelLayer
10
5.6671277
20
3.4362263
40
0.1200183
50
287.9878573
51
295.3048818
0
ARC
8
front_labelLayer
10
5.6381621
20
3.523858
40
0.2123125
50
283.3072237
51
288.1194904
0
ARC
8
front_labelLayer
10
5.6075558
20
3.6515529
40
0.3436237
50
280.0076181
51
283.3727032
0
ARC
8
front_labelLayer
10
5.5874635
20
3.7604448
40
0.4543513
50
279.1842959
51
280.1164996
0
ARC
8
front_labelLayer
10
5.5745447
20
3.8340334
40
0.5290594
50
275.5263981
51
279.2934247
0
ARC
8
front_labelLayer
10
5.5887179
20
3.6860151
40
0.3803642
50
270.8929166
51
275.5486166
0
ARC
8
front_labelLayer
10
5.5905086
20
3.6179755
40
0.3123058
50
270.0003575
51
270.7589583
0
ARC
8
front_labelLayer
10
5.585586
20
3.6243699
40
0.3187384
50
253.7847139
51
270.8852566
0
ARC
8
front_labelLayer
10
5.547824
20
3.4955881
40
0.184535
50
190.381801
51
253.8772055
0
ARC
8
front_labelLayer
10
5.7402953
20
3.5476294
40
0.3835888
50
179.3550943
51
192.8478259
0
ARC
8
front_labelLayer
10
5.7244936
20
3.555555
40
0.2457316
50
179.6414006
51
189.7506764
0
ARC
8
front_labelLayer
10
5.6377453
20
3.5400813
40
0.1576167
50
189.5477054
51
205.7877238
0
ARC
8
front_labelLayer
10
5.6021002
20
3.5236436
40
0.1183726
50
206.1295883
51
221.4084979
0
ARC
8
front_labelLayer
10
5.5981022
20
3.5206094
40
0.1133678
50
221.5948103
51
262.350655
0
ARC
8
front_labelLayer
10
5.6076109
20
3.5695026
40
0.1631178
50
261.3263764
51
270.1908681
0
LINE
8
left_outsideCutPath
10
8.125
20
7.653
11
8.125
21
0.125
0
LINE
8
left_outsideCutPath
10
8.125
20
0.125
11
9.653
21
0.125
0
LINE
8
left_outsideCutPath
10
9.653
20
0.125
11
9.653
21
7.653
0
LINE
8
left_outsideCutPath
10
9.653
20
7.653
11
8.125
21
7.653
0
LINE
8
left_labelLayer
10
8.7000144
20
4.0057669
11
8.7000144
21
3.7735825
0
LINE
8
left_labelLayer
10
8.7000144
20
3.7735825
11
8.6752441
21
3.7735825
0
LINE
8
left_labelLayer
10
8.6752441
20
3.7735825
11
8.6752441
21
4.0057669
0
LINE
8
left_labelLayer
10
8.6752441
20
4.0057669
11
8.7000144
21
4.0057669
0
LINE
8
left_labelLayer
10
8.8817629
20
3.8665458
11
8.8817629
21
3.8508778
0
LINE
8
left_labelLayer
10
8.8817629
20
3.8508778
11
8.7691027
21
3.8508778
0
LINE
8
left_labelLayer
10
8.8747496
20
3.8032771
11
8.8747496
21
3.7811927
0
LINE
8
left_labelLayer
10
8.7696996
20
3.8710224
11
8.8552019
21
3.8710224
0
ARC
8
left_labelLayer
10
8.8208124
20
3.8668438
40
0.0962491
50
256.0082333
51
270.4853373
0
ARC
8
left_labelLayer
10
8.8138039
20
3.8396393
40
0.0681575
50
223.5466038
51
256.1957304
0
ARC
8
left_labelLayer
10
8.8176725
20
3.8424504
40
0.072901
50
194.0879477
51
223.0532433
0
ARC
8
left_labelLayer
10
8.8530983
20
3.8521381
40
0.1096223
50
181.3573179
51
194.4921121
0
ARC
8
left_labelLayer
10
8.8844277
20
3.8539774
40
0.1409906
50
179.9861855
51
181.8030107
0
ARC
8
left_labelLayer
10
8.8735043
20
3.8548848
40
0.1300702
50
168.9544454
51
180.3847132
0
ARC
8
left_labelLayer
10
8.8310219
20
3.8635334
40
0.0867182
50
149.4067195
51
169.1851795
0
ARC
8
left_labelLayer
10
8.8191855
20
3.8697878
40
0.0733492
50
140.1052797
51
148.9066342
0
ARC
8
left_labelLayer
10
8.8119158
20
3.8764905
40
0.0634747
50
92.4761836
51
140.5383945
0
ARC
8
left_labelLayer
10
8.8151589
20
3.8524638
40
0.0876469
50
89.9657524
51
93.9158429
0
ARC
8
left_labelLayer
10
8.8159292
20
3.8646464
40
0.0754677
50
74.2130633
51
90.5450454
0
ARC
8
left_labelLayer
10
8.8206555
20
3.882063
40
0.0574224
50
41.2066133
51
74.02313
0
ARC
8
left_labelLayer
10
8.8117054
20
3.8743173
40
0.0692586
50
11.5990936
51
41.1497638
0
ARC
8
left_labelLayer
10
8.7809494
20
3.8672245
40
0.1008156
50
359.6143038
51
12.0333573
0
ARC
8
left_labelLayer
10
8.8685207
20
3.8528661
40
0.0994378
50
181.1456921
51
190.7998512
0
ARC
8
left_labelLayer
10
8.8334306
20
3.8459474
40
0.0636732
50
190.6009637
51
206.0272346
0
ARC
8
left_labelLayer
10
8.8179091
20
3.8386097
40
0.0465066
50
206.2949569
51
222.5560863
0
ARC
8
left_labelLayer
10
8.8165348
20
3.8378906
40
0.0450098
50
223.0648562
51
258.1403636
0
ARC
8
left_labelLayer
10
8.8220082
20
3.860422
40
0.0681891
50
257.530373
51
270.4326321
0
ARC
8
left_labelLayer
10
8.8220705
20
3.9230583
40
0.1308243
50
270.1982065
51
292.2090948
0
ARC
8
left_labelLayer
10
8.8159066
20
3.9408093
40
0.1495915
50
291.8249208
51
293.1636196
0
ARC
8
left_labelLayer
10
8.8155009
20
3.9175436
40
0.1486673
50
287.9011747
51
293.4864415
0
ARC
8
left_labelLayer
10
8.8262658
20
3.8843241
40
0.1137473
50
281.9946079
51
287.8846348
0
ARC
8
left_labelLayer
10
8.8288909
20
3.8748904
40
0.1039757
50
275.9044848
51
281.659944
0
ARC
8
left_labelLayer
10
8.8236572
20
3.9236986
40
0.1530636
50
271.9116535
51
275.9737532
0
ARC
8
left_labelLayer
10
8.8217388
20
3.9724985
40
0.2019005
50
269.9684909
51
271.9937964
0
ARC
8
left_labelLayer
10
8.8144369
20
3.8705476
40
0.048824
50
89.4414427
51
106.2095891
0
ARC
8
left_labelLayer
10
8.8115007
20
3.8812529
40
0.0377249
50
106.4661898
51
137.9168891
0
ARC
8
left_labelLayer
10
8.8199231
20
3.8738579
40
0.0489322
50
138.0999832
51
160.5866206
0
ARC
8
left_labelLayer
10
8.8415767
20
3.8658927
40
0.0720029
50
160.3358571
51
172.5310296
0
ARC
8
left_labelLayer
10
8.8629458
20
3.8624689
40
0.0936378
50
172.1535095
51
174.7589192
0
ARC
8
left_labelLayer
10
8.7707895
20
3.8715018
40
0.0844138
50
359.6745937
51
8.9219359
0
ARC
8
left_labelLayer
10
8.8009585
20
3.8764167
40
0.0538478
50
8.7340755
51
23.2777425
0
ARC
8
left_labelLayer
10
8.815276
20
3.8824271
40
0.0383208
50
23.4824902
51
39.7081266
0
ARC
8
left_labelLayer
10
8.8187913
20
3.8850578
40
0.0339366
50
40.0829597
51
80.6238485
0
ARC
8
left_labelLayer
10
8.8151725
20
3.8684775
40
0.0508924
50
79.6451321
51
90.2922692
0
LINE
8
left_labelLayer
10
8.9977059
20
3.9371263
11
8.9977059
21
3.9178771
0
LINE
8
left_labelLayer
10
8.9977059
20
3.9178771
11
8.9560738
21
3.9178771
0
LINE
8
left_labelLayer
10
8.9560738
20
3.9178771
11
8.9560738
21
3.7735825
0
LINE
8
left_labelLayer
10
8.9560738
20
3.7735825
11
8.9313035
21
3.7735825
0
LINE
8
left_labelLayer
10
8.9313035
20
3.7735825
11
8.9313035
21
3.9178771
0
LINE
8
left_labelLayer
10
8.9313035
20
3.9178771
11
8.9020566
21
3.9178771
0
LINE
8
left_labelLayer
10
8.9020566
20
3.9178771
11
8.9020566
21
3.9290685
0
LINE
8
left_labelLayer
10
8.9020566
20
3.9290685
11
8.9313035
21
3.9380216
0
LINE
8
left_labelLayer
10
8.9313035
20
3.9380216
11
8.9313035
21
3.9471239
0
LINE
8
left_labelLayer
10
9.0144184
20
4.0021857
11
9.0080019
21
3.9823396
0
LINE
8
left_labelLayer
10
8.9560738
20
3.9477208
11
8.9560738
21
3.9371263
0
LINE
8
left_labelLayer
10
8.9560738
20
3.9371263
11
8.9977059
21
3.9371263
0
ARC
8
left_labelLayer
10
9.0316922
20
3.9482773
40
0.1003954
50
167.5775783
51
180.6582164
0
ARC
8
left_labelLayer
10
8.9844808
20
3.959284
40
0.051925
50
141.7429696
51
168.231997
0
ARC
8
left_labelLayer
10
8.9767953
20
3.963295
40
0.0434364
50
98.2554885
51
139.6198671
0
ARC
8
left_labelLayer
10
8.9835447
20
3.932109
40
0.0753006
50
89.6705033
51
99.9308578
0
ARC
8
left_labelLayer
10
8.983564
20
3.9276507
40
0.0797587
50
81.5643801
51
89.7028041
0
ARC
8
left_labelLayer
10
8.9779537
20
3.8885187
40
0.1192903
50
75.9737228
51
81.6561065
0
ARC
8
left_labelLayer
10
8.9683876
20
3.8488106
40
0.1601335
50
73.2944932
51
76.096451
0
ARC
8
left_labelLayer
10
8.9707417
20
3.867919
40
0.1203345
50
71.9625355
51
76.5910831
0
ARC
8
left_labelLayer
10
8.9800859
20
3.9075492
40
0.0796178
50
76.5185971
51
83.0215346
0
ARC
8
left_labelLayer
10
8.9833392
20
3.9337315
40
0.0532342
50
83.0733215
51
89.7945796
0
ARC
8
left_labelLayer
10
8.9832296
20
3.9535619
40
0.0334048
50
89.4846148
51
103.4187633
0
ARC
8
left_labelLayer
10
8.9802179
20
3.965133
40
0.0214519
50
102.7665922
51
144.3391777
0
ARC
8
left_labelLayer
10
8.9862847
20
3.9612287
40
0.0286595
50
145.0681744
51
162.1803243
0
ARC
8
left_labelLayer
10
9.0071005
20
3.9542268
40
0.0506203
50
161.845389
51
171.784039
0
ARC
8
left_labelLayer
10
9.0410273
20
3.9491326
40
0.0849271
50
171.6534163
51
178.4383501
0
ARC
8
left_labelLayer
10
9.072767
20
3.9477742
40
0.1166931
50
178.1963733
51
180.0262367
0
LINE
8
left_labelLayer
10
9.1027559
20
3.7940255
11
9.1027559
21
3.7750747
0
LINE
8
left_labelLayer
10
9.0293402
20
3.8205864
11
9.0293402
21
3.9178771
0
LINE
8
left_labelLayer
10
9.0293402
20
3.9178771
11
9.0059129
21
3.9178771
0
LINE
8
left_labelLayer
10
9.0059129
20
3.9178771
11
9.0059129
21
3.9298146
0
LINE
8
left_labelLayer
10
9.0059129
20
3.9298146
11
9.0293402
21
3.9401107
0
LINE
8
left_labelLayer
10
9.0293402
20
3.9401107
11
9.0397855
21
3.9750278
0
LINE
8
left_labelLayer
10
9.0397855
20
3.9750278
11
9.0541105
21
3.9750278
0
LINE
8
left_labelLayer
10
9.0541105
20
3.9750278
11
9.0541105
21
3.9371263
0
LINE
8
left_labelLayer
10
9.0541105
20
3.9371263
11
9.1015621
21
3.9371263
0
LINE
8
left_labelLayer
10
9.1015621
20
3.9371263
11
9.1015621
21
3.9178771
0
LINE
8
left_labelLayer
10
9.1015621
20
3.9178771
11
9.0541105
21
3.9178771
0
LINE
8
left_labelLayer
10
9.0541105
20
3.9178771
11
9.0541105
21
3.821631
0
ARC
8
left_labelLayer
10
9.0805416
20
3.8723959
40
0.081355
50
269.8812582
51
278.3031178
0
ARC
8
left_labelLayer
10
9.0806974
20
3.8701333
40
0.0790939
50
278.4282038
51
278.9899374
0
ARC
8
left_labelLayer
10
9.0721711
20
3.9244565
40
0.1340821
50
278.9612553
51
280.5117195
0
ARC
8
left_labelLayer
10
9.0808326
20
3.8779871
40
0.0868125
50
280.4863988
51
282.6212067
0
ARC
8
left_labelLayer
10
9.0885198
20
3.8437962
40
0.051768
50
282.587377
51
285.5797328
0
ARC
8
left_labelLayer
10
9.0911048
20
3.8340546
40
0.0416902
50
285.7534132
51
286.2284624
0
ARC
8
left_labelLayer
10
9.0923428
20
3.7971001
40
0.0243628
50
287.9871584
51
295.3035624
0
ARC
8
left_labelLayer
10
9.0864638
20
3.8148839
40
0.0430932
50
283.3077371
51
288.1201242
0
ARC
8
left_labelLayer
10
9.0802461
20
3.8408372
40
0.0697807
50
280.0073458
51
283.3708129
0
ARC
8
left_labelLayer
10
9.0761781
20
3.8628523
40
0.0921681
50
279.1867597
51
280.119511
0
ARC
8
left_labelLayer
10
9.0735358
20
3.8779605
40
0.1075045
50
275.5284772
51
279.2913559
0
ARC
8
left_labelLayer
10
9.0764324
20
3.8477125
40
0.0771181
50
270.8905906
51
275.5515188
0
ARC
8
left_labelLayer
10
9.0767883
20
3.834016
40
0.0634179
50
270.0031153
51
270.761388
0
ARC
8
left_labelLayer
10
9.0757917
20
3.835286
40
0.0646956
50
253.7850671
51
270.8857665
0
ARC
8
left_labelLayer
10
9.0681275
20
3.8091472
40
0.0374563
50
190.3820805
51
253.8771934
0
ARC
8
left_labelLayer
10
9.1071929
20
3.8197093
40
0.0778575
50
179.3544877
51
192.8474965
0
ARC
8
left_labelLayer
10
9.1039859
20
3.8213179
40
0.0498764
50
179.6403664
51
189.7498935
0
ARC
8
left_labelLayer
10
9.0863772
20
3.8181777
40
0.0319902
50
189.5478051
51
205.7888843
0
ARC
8
left_labelLayer
10
9.0791438
20
3.8148412
40
0.0240262
50
206.1291397
51
221.4083863
0
ARC
8
left_labelLayer
10
9.0783333
20
3.8142264
40
0.0230118
50
221.5952549
51
262.3495596
0
ARC
8
left_labelLayer
10
9.0802625
20
3.8241525
40
0.0331115
50
261.3275541
51
270.1913436
0
LINE
8
top_outsideCutPath
10
9.778
20
2.125
11
9.778
21
0.125
0
LINE
8
top_outsideCutPath
10
9.778
20
0.125
11
17.778
21
0.125
0
LINE
8
top_outsideCutPath
10
17.778
20
0.125
11
17.778
21
2.125
0
LINE
8
top_outsideCutPath
10
17.778
20
2.125
11
9.778
21
2.125
0
LINE
8
top_labelLayer
10
13.6049515
20
1.0679688
11
13.6049515
21
1.0431641
0
LINE
8
top_labelLayer
10
13.5088577
20
1.1027344
11
13.5088577
21
1.2300781
0
LINE
8
top_labelLayer
10
13.5088577
20
1.2300781
11
13.4781937
21
1.2300781
0
LINE
8
top_labelLayer
10
13.4781937
20
1.2300781
11
13.4781937
21
1.2457031
0
LINE
8
top_labelLayer
10
13.4781937
20
1.2457031
11
13.5088577
21
1.2591797
0
LINE
8
top_labelLayer
10
13.5088577
20
1.2591797
11
13.5225296
21
1.3048828
0
LINE
8
top_labelLayer
10
13.5225296
20
1.3048828
11
13.5412796
21
1.3048828
0
LINE
8
top_labelLayer
10
13.5412796
20
1.3048828
11
13.5412796
21
1.2552734
0
LINE
8
top_labelLayer
10
13.5412796
20
1.2552734
11
13.603389
21
1.2552734
0
LINE
8
top_labelLayer
10
13.603389
20
1.2552734
11
13.603389
21
1.2300781
0
LINE
8
top_labelLayer
10
13.603389
20
1.2300781
11
13.5412796
21
1.2300781
0
LINE
8
top_labelLayer
10
13.5412796
20
1.2300781
11
13.5412796
21
1.1041016
0
ARC
8
top_labelLayer
10
13.5758756
20
1.1705591
40
0.1064968
50
269.881121
51
278.3020978
0
ARC
8
top_labelLayer
10
13.5775728
20
1.157759
40
0.0935859
50
278.4054245
51
279.026822
0
ARC
8
top_labelLayer
10
13.5648013
20
1.239406
40
0.1762258
50
278.9628177
51
280.5068977
0
ARC
8
top_labelLayer
10
13.5764002
20
1.1771474
40
0.112896
50
280.4808493
51
282.6295187
0
ARC
8
top_labelLayer
10
13.5863237
20
1.133091
40
0.0677358
50
282.5866869
51
285.5800748
0
ARC
8
top_labelLayer
10
13.5922462
20
1.1115036
40
0.045351
50
285.6978323
51
286.2694347
0
ARC
8
top_labelLayer
10
13.5913281
20
1.0719779
40
0.0318721
50
287.9849695
51
295.3051367
0
ARC
8
top_labelLayer
10
13.5836316
20
1.0952586
40
0.056392
50
283.3056658
51
288.1191315
0
ARC
8
top_labelLayer
10
13.575507
20
1.1291456
40
0.0912393
50
280.0061995
51
283.373233
0
ARC
8
top_labelLayer
10
13.5698462
20
1.159971
40
0.1225796
50
279.1903934
51
280.1083759
0
ARC
8
top_labelLayer
10
13.5667325
20
1.1776229
40
0.1405026
50
275.5256702
51
279.2941769
0
ARC
8
top_labelLayer
10
13.5704847
20
1.138464
40
0.1011643
50
270.8954186
51
275.5460028
0
ARC
8
top_labelLayer
10
13.5709625
20
1.1218254
40
0.0845206
50
270.0031369
51
270.7478361
0
ARC
8
top_labelLayer
10
13.5696582
20
1.1219703
40
0.0846758
50
253.7841298
51
270.8856899
0
ARC
8
top_labelLayer
10
13.5596266
20
1.0877614
40
0.0490265
50
190.3818776
51
253.8770115
0
ARC
8
top_labelLayer
10
13.610753
20
1.1015866
40
0.1019018
50
179.354645
51
192.8484566
0
ARC
8
top_labelLayer
10
13.6065555
20
1.1036923
40
0.0652772
50
179.6407338
51
189.7511717
0
ARC
8
top_labelLayer
10
13.5835138
20
1.0995813
40
0.0418723
50
189.547359
51
205.7883411
0
ARC
8
top_labelLayer
10
13.5740488
20
1.095217
40
0.0314519
50
206.13087
51
221.4081413
0
ARC
8
top_labelLayer
10
13.5729845
20
1.0944098
40
0.03012
50
221.5956481
51
262.3500319
0
ARC
8
top_labelLayer
10
13.5755086
20
1.1073742
40
0.043312
50
261.3236147
51
270.1930865
0
ARC
8
top_labelLayer
10
13.6650206
20
1.1473094
40
0.1674738
50
349.1759766
51
0.3859435
0
ARC
8
top_labelLayer
10
13.7214061
20
1.1360684
40
0.1099815
50
330.2506036
51
349.4115498
0
ARC
8
top_labelLayer
10
13.7387667
20
1.1270428
40
0.0904338
50
318.1434308
51
329.7574593
0
ARC
8
top_labelLayer
10
13.7418902
20
1.1245395
40
0.0864372
50
278.8957336
51
317.9977466
0
ARC
8
top_labelLayer
10
13.7338215
20
1.1632004
40
0.1258967
50
269.7498124
51
279.8029106
0
ARC
8
top_labelLayer
10
13.7325117
20
1.1414152
40
0.1041132
50
253.541598
51
270.4183125
0
ARC
8
top_labelLayer
10
13.7290437
20
1.1280057
40
0.090272
50
238.8109875
51
253.2411664
0
ARC
8
top_labelLayer
10
13.7279275
20
1.1257623
40
0.087775
50
207.7950395
51
238.6759821
0
ARC
8
top_labelLayer
10
13.7439532
20
1.135579
40
0.1065361
50
205.6555736
51
208.4464019
0
ARC
8
top_labelLayer
10
13.7563364
20
1.1407413
40
0.1199356
50
188.9098649
51
205.3173114
0
ARC
8
top_labelLayer
10
13.7980004
20
1.1477979
40
0.1621906
50
179.7740663
51
189.0930445
0
ARC
8
top_labelLayer
10
13.8041482
20
1.1495777
40
0.1683412
50
169.2442527
51
180.388085
0
ARC
8
top_labelLayer
10
13.7469825
20
1.1608775
40
0.1100719
50
150.7113718
51
169.4695822
0
ARC
8
top_labelLayer
10
13.7287309
20
1.1702499
40
0.0895715
50
138.1757649
51
150.2286795
0
ARC
8
top_labelLayer
10
13.7256961
20
1.1725791
40
0.0857573
50
99.175979
51
137.9832858
0
ARC
8
top_labelLayer
10
13.7340513
20
1.1332597
40
0.1259214
50
89.7325871
51
100.0760905
0
ARC
8
top_labelLayer
10
13.7357218
20
1.1502424
40
0.1089426
50
73.5220791
51
90.5695208
0
ARC
8
top_labelLayer
10
13.7421112
20
1.1734539
40
0.0848734
50
41.1441631
51
73.2136318
0
ARC
8
top_labelLayer
10
13.7299131
20
1.1629694
40
0.1009577
50
13.5016203
51
41.0701942
0
ARC
8
top_labelLayer
10
13.6827986
20
1.1506396
40
0.1496521
50
1.1276734
51
13.8802943
0
ARC
8
top_labelLayer
10
13.6419126
20
1.1484644
40
0.1905778
50
359.9919259
51
1.5396018
0
ARC
8
top_labelLayer
10
13.8335829
20
1.1475949
40
0.1641805
50
179.7059533
51
187.916232
0
ARC
8
top_labelLayer
10
13.7733644
20
1.1389431
40
0.1033446
50
187.7633374
51
200.097646
0
ARC
8
top_labelLayer
10
13.7401975
20
1.1267907
40
0.0680214
50
200.0845607
51
216.9125271
0
ARC
8
top_labelLayer
10
13.7280815
20
1.1181405
40
0.0531399
50
217.3011703
51
261.7097209
0
ARC
8
top_labelLayer
10
13.7337061
20
1.144975
40
0.0805228
50
260.5024687
51
270.2468821
0
ARC
8
top_labelLayer
10
13.7347777
20
1.139758
40
0.0753083
50
269.4486893
51
284.7259451
0
ARC
8
top_labelLayer
10
13.7407403
20
1.1176473
40
0.0524087
50
284.5659952
51
322.6332968
0
ARC
8
top_labelLayer
10
13.7268013
20
1.127717
40
0.0695997
50
323.0093111
51
342.6394859
0
ARC
8
top_labelLayer
10
13.6869344
20
1.1407472
40
0.1115399
50
342.3615719
51
353.7538372
0
ARC
8
top_labelLayer
10
13.6280974
20
1.1478387
40
0.1708005
50
353.5364709
51
0.2008633
0
ARC
8
top_labelLayer
10
13.6371124
20
1.1492631
40
0.1617865
50
359.7076176
51
7.8965616
0
ARC
8
top_labelLayer
10
13.6963719
20
1.157756
40
0.1019224
50
7.7442274
51
20.0691467
0
ARC
8
top_labelLayer
10
13.7293814
20
1.1698687
40
0.0667608
50
20.0263256
51
37.4341838
0
ARC
8
top_labelLayer
10
13.7403402
20
1.1776441
40
0.0533348
50
37.9576074
51
80.4006228
0
ARC
8
top_labelLayer
10
13.7341146
20
1.1498638
40
0.0817782
50
79.3455368
51
90.3168042
0
ARC
8
top_labelLayer
10
13.7329636
20
1.1544829
40
0.0771609
50
89.4811205
51
103.8809013
0
ARC
8
top_labelLayer
10
13.7264798
20
1.1791721
40
0.0516387
50
103.4687874
51
142.3117896
0
ARC
8
top_labelLayer
10
13.7390833
20
1.1703084
40
0.067035
50
142.9023963
51
162.3749438
0
ARC
8
top_labelLayer
10
13.7788124
20
1.1570697
40
0.1089092
50
162.065709
51
173.1666032
0
ARC
8
top_labelLayer
10
13.8407174
20
1.1491757
40
0.1713143
50
173.0086608
51
180.2469003
0
LINE
8
top_labelLayer
10
13.9217483
20
1.06875
11
13.9194046
21
1.06875
0
LINE
8
top_labelLayer
10
13.9217483
20
1.0332031
11
13.9217483
21
0.9451172
0
LINE
8
top_labelLayer
10
13.9217483
20
0.9451172
11
13.8893265
21
0.9451172
0
LINE
8
top_labelLayer
10
13.8893265
20
0.9451172
11
13.8893265
21
1.2552734
0
LINE
8
top_labelLayer
10
13.8893265
20
1.2552734
11
13.9156937
21
1.2552734
0
LINE
8
top_labelLayer
10
13.9156937
20
1.2552734
11
13.9201858
21
1.2259766
0
LINE
8
top_labelLayer
10
13.9201858
20
1.2259766
11
13.9217483
21
1.2259766
0
LINE
8
top_labelLayer
10
13.9217483
20
1.1556641
11
13.9217483
21
1.1484375
0
ARC
8
top_labelLayer
10
13.9883892
20
1.135647
40
0.0983438
50
255.7756678
51
270.3184952
0
ARC
8
top_labelLayer
10
13.9855856
20
1.1231862
40
0.0855769
50
245.980847
51
255.5451934
0
ARC
8
top_labelLayer
10
13.9801467
20
1.1105363
40
0.0718086
50
215.5851757
51
245.8363402
0
ARC
8
top_labelLayer
10
13.6150248
20
1.030285
40
0.3068007
50
2.9502117
51
7.2023914
0
ARC
8
top_labelLayer
10
13.6646457
20
1.0330603
40
0.2571027
50
0.0318377
51
2.9016952
0
ARC
8
top_labelLayer
10
13.9931636
20
1.1758232
40
0.0872668
50
132.3566223
51
144.9205028
0
ARC
8
top_labelLayer
10
13.9797986
20
1.190403
40
0.0674881
50
115.4005812
51
132.3113842
0
ARC
8
top_labelLayer
10
13.9850121
20
1.1777125
40
0.0811916
50
97.7063972
51
114.8825944
0
ARC
8
top_labelLayer
10
13.9886536
20
1.1541094
40
0.1050707
50
89.8461082
51
97.9482669
0
ARC
8
top_labelLayer
10
13.9899388
20
1.1598004
40
0.0993843
50
74.1925253
51
90.5781966
0
ARC
8
top_labelLayer
10
13.9968159
20
1.1848014
40
0.0734557
50
38.0522926
51
74.0416798
0
ARC
8
top_labelLayer
10
13.9778511
20
1.1702655
40
0.0973495
50
16.3351104
51
37.9091443
0
ARC
8
top_labelLayer
10
13.9280243
20
1.1549173
40
0.1494836
50
4.5766456
51
16.6090316
0
ARC
8
top_labelLayer
10
13.866612
20
1.1488025
40
0.2111913
50
359.9009705
51
4.9008497
0
ARC
8
top_labelLayer
10
13.8877046
20
1.1473171
40
0.1901017
50
350.6561768
51
0.3376853
0
ARC
8
top_labelLayer
10
13.9539793
20
1.1360447
40
0.1228769
50
335.8305081
51
350.8252596
0
ARC
8
top_labelLayer
10
13.9831222
20
1.1234677
40
0.0911405
50
321.3170207
51
335.5427567
0
ARC
8
top_labelLayer
10
13.9942762
20
1.1143808
40
0.0767542
50
274.0641724
51
321.4080613
0
ARC
8
top_labelLayer
10
13.9890824
20
1.147322
40
0.1100173
50
269.923666
51
275.5465178
0
ARC
8
top_labelLayer
10
13.9835796
20
1.1382373
40
0.0934057
50
89.5897926
51
100.3511917
0
ARC
8
top_labelLayer
10
13.9769175
20
1.1732225
40
0.0577936
50
100.0859879
51
118.1922155
0
ARC
8
top_labelLayer
10
13.9700945
20
1.1865281
40
0.0428438
50
118.5565541
51
141.0240227
0
ARC
8
top_labelLayer
10
13.9804902
20
1.1791949
40
0.0555443
50
141.8884073
51
160.5979416
0
ARC
8
top_labelLayer
10
14.0170212
20
1.165788
40
0.0944558
50
160.2885223
51
171.2463613
0
ARC
8
top_labelLayer
10
14.0771504
20
1.1560932
40
0.1553606
50
171.0874045
51
178.3241743
0
ARC
8
top_labelLayer
10
14.128281
20
1.1536742
40
0.2065421
50
178.0681923
51
179.4479809
0
ARC
8
top_labelLayer
10
14.1361034
20
1.1475987
40
0.2143567
50
179.7757899
51
185.7074399
0
ARC
8
top_labelLayer
10
14.0515766
20
1.1388881
40
0.1293828
50
185.5917073
51
194.2057914
0
ARC
8
top_labelLayer
10
13.9974515
20
1.1248383
40
0.0734657
50
193.9425427
51
208.0224392
0
ARC
8
top_labelLayer
10
13.9755731
20
1.1137111
40
0.0489266
50
208.5566716
51
217.5586365
0
ARC
8
top_labelLayer
10
13.9737662
20
1.1129541
40
0.0470355
50
218.1693317
51
253.8048401
0
ARC
8
top_labelLayer
10
13.982489
20
1.1398436
40
0.0752961
50
253.1375139
51
266.8489951
0
ARC
8
top_labelLayer
10
13.9849336
20
1.1686215
40
0.1041683
50
266.3764729
51
270.0527887
0
ARC
8
top_labelLayer
10
13.9857683
20
1.1190767
40
0.0546286
50
269.2252126
51
292.0430132
0
ARC
8
top_labelLayer
10
13.9865044
20
1.1146856
40
0.0502914
50
293.1432883
51
324.13523
0
ARC
8
top_labelLayer
10
13.9754175
20
1.1240542
40
0.0647744
50
323.1650247
51
325.0139734
0
ARC
8
top_labelLayer
10
13.9638292
20
1.1312275
40
0.0783853
50
325.5749392
51
344.1506888
0
ARC
8
top_labelLayer
10
13.9232586
20
1.1432206
40
0.1206898
50
343.9337121
51
355.1134556
0
ARC
8
top_labelLayer
10
13.8714893
20
1.1484718
40
0.1727202
50
354.8406938
51
0.1181998
0
ARC
8
top_labelLayer
10
13.8806201
20
1.1496552
40
0.1635913
50
359.710337
51
7.8615035
0
ARC
8
top_labelLayer
10
13.9400948
20
1.1581351
40
0.103516
50
7.71465
51
19.8862843
0
ARC
8
top_labelLayer
10
13.9728136
20
1.1699552
40
0.0687275
50
19.8980826
51
35.8987595
0
ARC
8
top_labelLayer
10
13.9874362
20
1.1810443
40
0.0503819
50
35.4338731
51
84.7852026
0
ARC
8
top_labelLayer
10
13.9843618
20
1.1622054
40
0.0694354
50
83.6716821
51
90.0936421
0
LINE
8
back_outsideCutPath
10
0
20
15.306
11
0
21
7.778
0
LINE
8
back_outsideCutPath
10
0
20
7.778
11
8
21
7.778
0
LINE
8
back_outsideCutPath
10
8
20
7.778
11
8
21
15.306
0
LINE
8
back_outsideCutPath
10
8
20
15.306
11
0
21
15.306
0
LINE
8
back_labelLayer
10
2.5612992
20
11.0810653
11
2.5524773
21
11.0810653
0
LINE
8
back_labelLayer
10
2.5524773
20
11.0810653
11
2.5267469
21
10.9774083
0
LINE
8
back_labelLayer
10
2.5267469
20
10.9774083
11
2.4392633
21
10.9774083
0
LINE
8
back_labelLayer
10
2.4392633
20
10.9774083
11
2.4392633
21
12.1213114
0
LINE
8
back_labelLayer
10
2.4392633
20
12.1213114
11
2.5612992
21
12.1213114
0
LINE
8
back_labelLayer
10
2.5612992
20
12.1213114
11
2.5612992
21
11.8434224
0
LINE
8
back_labelLayer
10
2.555418
20
11.6758067
11
2.5612992
21
11.6758067
0
ARC
8
back_labelLayer
10
2.8178533
20
11.4234043
40
0.372986
50
74.2393177
51
90.562282
0
ARC
8
back_labelLayer
10
2.8425169
20
11.5138832
40
0.279211
50
38.5631557
51
74.0670506
0
ARC
8
back_labelLayer
10
2.7790461
20
11.4645318
40
0.359606
50
16.4709645
51
38.4074416
0
ARC
8
back_labelLayer
10
2.5962083
20
11.4071982
40
0.5512055
50
5.1338551
51
16.7974504
0
ARC
8
back_labelLayer
10
2.3654077
20
11.3826799
40
0.7832831
50
359.8777845
51
5.4094275
0
ARC
8
back_labelLayer
10
2.4331874
20
11.3767865
40
0.7155141
50
350.6562294
51
0.3381298
0
ARC
8
back_labelLayer
10
2.6826288
20
11.3343576
40
0.4624956
50
335.8304319
51
350.8256111
0
ARC
8
back_labelLayer
10
2.7923434
20
11.287002
40
0.343014
50
321.3162609
51
335.5436142
0
ARC
8
back_labelLayer
10
2.8342944
20
11.2528197
40
0.2889024
50
274.064086
51
321.4080198
0
ARC
8
back_labelLayer
10
2.8147542
20
11.3765785
40
0.4138736
50
269.9222989
51
275.5483002
0
ARC
8
back_labelLayer
10
2.8121349
20
11.3328609
40
0.3701615
50
255.7755484
51
270.3185542
0
ARC
8
back_labelLayer
10
2.8015718
20
11.2859303
40
0.3220767
50
245.9802436
51
255.5456185
0
ARC
8
back_labelLayer
10
2.781112
20
11.2383491
40
0.2702884
50
215.5850522
51
245.8361058
0
ARC
8
back_labelLayer
10
0.0164933
20
11.841277
40
2.5448068
50
358.112529
51
0.0483014
0
ARC
8
back_labelLayer
10
0.7252135
20
11.8174893
40
1.8356876
50
355.7238036
51
358.1260122
0
ARC
8
back_labelLayer
10
1.0175059
20
11.7975933
40
1.5427266
50
355.472221
51
355.6512323
0
ARC
8
back_labelLayer
10
2.788891
20
11.5171008
40
0.2774628
50
95.1835222
51
145.1108848
0
ARC
8
back_labelLayer
10
2.8132772
20
11.3795915
40
0.4167817
50
89.8741029
51
96.8145752
0
ARC
8
back_labelLayer
10
2.7939934
20
11.3512631
40
0.3429321
50
89.5729778
51
100.7322445
0
ARC
8
back_labelLayer
10
2.7686094
20
11.4795206
40
0.2121935
50
100.4471364
51
119.6698286
0
ARC
8
back_labelLayer
10
2.7450687
20
11.5235357
40
0.1623018
50
120.1404618
51
142.424702
0
ARC
8
back_labelLayer
10
2.7840154
20
11.4977727
40
0.2089061
50
143.3384153
51
161.2559966
0
ARC
8
back_labelLayer
10
2.9468904
20
11.4399474
40
0.3817322
50
160.8927499
51
171.2332632
0
ARC
8
back_labelLayer
10
3.2187552
20
11.3960897
40
0.657108
50
171.0667324
51
177.8457721
0
ARC
8
back_labelLayer
10
3.5015179
20
11.3817116
40
0.9402188
50
177.6179224
51
180.0428122
0
ARC
8
back_labelLayer
10
3.3681823
20
11.3778601
40
0.8068892
50
179.7763986
51
185.7076739
0
ARC
8
back_labelLayer
10
3.0500746
20
11.3450833
40
0.4871
50
185.5926875
51
194.2049405
0
ARC
8
back_labelLayer
10
2.8462661
20
11.2921886
40
0.2765462
50
193.9429329
51
208.0217441
0
ARC
8
back_labelLayer
10
2.7638284
20
11.250253
40
0.1840789
50
208.5540835
51
217.5600198
0
ARC
8
back_labelLayer
10
2.7570948
20
11.2474492
40
0.1770419
50
218.1691282
51
253.8046222
0
ARC
8
back_labelLayer
10
2.7899318
20
11.3486909
40
0.2834438
50
253.1383098
51
266.8483552
0
ARC
8
back_labelLayer
10
2.7991433
20
11.4573918
40
0.3925001
50
266.3781122
51
270.0505832
0
ARC
8
back_labelLayer
10
2.8020937
20
11.3081516
40
0.2432736
50
269.3867368
51
285.863174
0
ARC
8
back_labelLayer
10
2.8201671
20
11.2428338
40
0.1755037
50
286.0162451
51
326.8496691
0
ARC
8
back_labelLayer
10
2.7329327
20
11.3006225
40
0.2801415
50
326.7106058
51
343.6663019
0
ARC
8
back_labelLayer
10
2.5696303
20
11.3505226
40
0.4508909
50
343.4171949
51
353.6368647
0
ARC
8
back_labelLayer
10
2.3229931
20
11.3797862
40
0.6992541
50
353.4935816
51
0.2206771
0
ARC
8
back_labelLayer
10
2.3012213
20
11.3853963
40
0.7210268
50
359.7682125
51
6.3094025
0
ARC
8
back_labelLayer
10
2.5728241
20
11.4165619
40
0.4476455
50
6.1649758
51
16.0395134
0
ARC
8
back_labelLayer
10
2.7477762
20
11.4681179
40
0.2652619
50
15.7782246
51
32.01477
0
ARC
8
back_labelLayer
10
2.8023494
20
11.4993663
40
0.2024373
50
32.7040744
51
35.5250096
0
ARC
8
back_labelLayer
10
2.8222952
20
11.5135459
40
0.1779651
50
35.5409364
51
79.8011599
0
ARC
8
back_labelLayer
10
2.7983962
20
11.4119415
40
0.2822501
50
78.6783482
51
90.37493
0
LINE
8
back_labelLayer
10
3.9478039
20
10.9774083
11
3.8573797
21
10.9774083
0
LINE
8
back_labelLayer
10
3.8573797
20
10.9774083
11
3.8331195
21
11.0920927
0
LINE
8
back_labelLayer
10
3.8331195
20
11.0920927
11
3.8272383
21
11.0920927
0
LINE
8
back_labelLayer
10
3.6919695
20
11.455995
11
3.8287086
21
11.460406
0
LINE
8
back_labelLayer
10
3.8287086
20
11.460406
11
3.8287086
21
11.5103966
0
LINE
8
back_labelLayer
10
3.4295188
20
11.6339028
11
3.3920258
21
11.7272677
0
LINE
8
back_labelLayer
10
3.9478039
20
11.5273052
11
3.9478039
21
10.9774083
0
LINE
8
back_labelLayer
10
3.825768
20
11.3008771
11
3.825768
21
11.3736575
0
LINE
8
back_labelLayer
10
3.825768
20
11.3736575
11
3.703732
21
11.3685114
0
ARC
8
back_labelLayer
10
3.4301658
20
11.4056026
40
0.50592
50
314.7446365
51
321.7070287
0
ARC
8
back_labelLayer
10
3.5544604
20
11.2793127
40
0.3287261
50
304.8489445
51
314.8528975
0
ARC
8
back_labelLayer
10
3.6141777
20
11.1943156
40
0.2248492
50
294.3933915
51
304.7370647
0
ARC
8
back_labelLayer
10
3.5937855
20
11.2471526
40
0.2814103
50
281.2976711
51
293.7316963
0
ARC
8
back_labelLayer
10
3.5668135
20
11.3778674
40
0.4148769
50
272.9337337
51
281.4138854
0
ARC
8
back_labelLayer
10
3.5578812
20
11.5118475
40
0.5491424
50
269.953545
51
273.1490191
0
ARC
8
back_labelLayer
10
3.5547895
20
11.3372002
40
0.3745044
50
258.6718843
51
270.4048914
0
ARC
8
back_labelLayer
10
3.5287756
20
11.2127655
40
0.2473863
50
238.327295
51
258.9184684
0
ARC
8
back_labelLayer
10
3.5108507
20
11.1800622
40
0.2101506
50
227.7688623
51
237.8048558
0
ARC
8
back_labelLayer
10
3.5052426
20
11.1722336
40
0.2005879
50
192.0827926
51
227.4520071
0
ARC
8
back_labelLayer
10
3.6086593
20
11.1977261
40
0.3070673
50
179.5457295
51
192.6948183
0
ARC
8
back_labelLayer
10
3.5125854
20
11.208844
40
0.2111625
50
115.4904736
51
182.356762
0
ARC
8
back_labelLayer
10
3.6183383
20
11.0148725
40
0.4319304
50
101.3569005
51
117.0799383
0
ARC
8
back_labelLayer
10
3.703269
20
10.6179719
40
0.8377994
50
92.4697251
51
101.7063706
0
ARC
8
back_labelLayer
10
3.7277155
20
10.2634625
40
1.1930682
50
91.7169167
51
92.9090257
0
ARC
8
back_labelLayer
10
3.4781937
20
11.5122713
40
0.3505199
50
359.6935618
51
8.0037218
0
ARC
8
back_labelLayer
10
3.610782
20
11.5315865
40
0.216535
50
7.8275489
51
20.6039267
0
ARC
8
back_labelLayer
10
3.6858248
20
11.5602933
40
0.136191
50
20.4093277
51
41.4481635
0
ARC
8
back_labelLayer
10
3.6969094
20
11.5663867
40
0.12388
50
42.7294338
51
71.0380445
0
ARC
8
back_labelLayer
10
3.6708093
20
11.4954206
40
0.1994825
50
70.5715977
51
83.9929626
0
ARC
8
back_labelLayer
10
3.6583398
20
11.394118
40
0.3015393
50
83.6509968
51
90.1753021
0
ARC
8
back_labelLayer
10
3.6605271
20
11.2983467
40
0.3973214
50
90.4484632
51
103.7665857
0
ARC
8
back_labelLayer
10
3.7072538
20
11.101302
40
0.599827
50
103.622761
51
112.4319434
0
ARC
8
back_labelLayer
10
3.7873449
20
10.8990823
40
0.8173131
50
112.212289
51
115.9640995
0
ARC
8
back_labelLayer
10
3.6590835
20
11.2320105
40
0.5626718
50
106.3568292
51
118.3348946
0
ARC
8
back_labelLayer
10
3.6831599
20
11.1575798
40
0.6408741
50
104.5167867
51
106.5482242
0
ARC
8
back_labelLayer
10
3.6654743
20
11.2312076
40
0.5651653
50
90.0715233
51
104.6521134
0
ARC
8
back_labelLayer
10
3.6676903
20
11.2809468
40
0.5154339
50
81.5681943
51
90.3247626
0
ARC
8
back_labelLayer
10
3.6974929
20
11.4751109
40
0.319
50
68.2274056
51
81.7495552
0
ARC
8
back_labelLayer
10
3.7390006
20
11.5783849
40
0.207697
50
47.8682094
51
68.2935834
0
ARC
8
back_labelLayer
10
3.7457358
20
11.591834
40
0.1932469
50
19.2330084
51
46.674066
0
ARC
8
back_labelLayer
10
3.6335217
20
11.5500887
40
0.3129589
50
6.3377191
51
19.6817083
0
ARC
8
back_labelLayer
10
3.467636
20
11.5289589
40
0.4801708
50
359.8026671
51
6.6585498
0
ARC
8
back_labelLayer
10
3.5841638
20
11.3994064
40
0.3359938
50
269.5791939
51
282.041591
0
ARC
8
back_labelLayer
10
3.6086713
20
11.290705
40
0.2245754
50
281.7122625
51
306.4591878
0
ARC
8
back_labelLayer
10
3.619547
20
11.2728225
40
0.2037386
50
306.987768
51
313.855912
0
ARC
8
back_labelLayer
10
3.6182492
20
11.2724583
40
0.2043784
50
314.1890081
51
347.4271349
0
ARC
8
back_labelLayer
10
3.5158665
20
11.2981145
40
0.3099031
50
346.9179246
51
0.2825664
0
ARC
8
back_labelLayer
10
3.4452803
20
11.3008148
40
0.3804875
50
359.8235158
51
0.0093716
0
ARC
8
back_labelLayer
10
3.7327555
20
10.4729787
40
0.8960029
50
91.8562564
51
96.4479117
0
ARC
8
back_labelLayer
10
3.6923487
20
10.822604
40
0.5440522
50
96.354362
51
102.9952238
0
ARC
8
back_labelLayer
10
3.6375018
20
11.0556408
40
0.304652
50
102.7997655
51
113.2430927
0
ARC
8
back_labelLayer
10
3.592286
20
11.1637854
40
0.1874443
50
113.5889422
51
121.6800435
0
ARC
8
back_labelLayer
10
3.5608609
20
11.2116486
40
0.1302191
50
120.9733962
51
172.4180347
0
ARC
8
back_labelLayer
10
3.6222563
20
11.1993827
40
0.1927389
50
171.2116544
51
180.2058294
0
ARC
8
back_labelLayer
10
3.6039061
20
11.1972485
40
0.1743934
50
179.5262928
51
192.7791913
0
ARC
8
back_labelLayer
10
3.5449189
20
11.1829481
40
0.1137076
50
192.3264061
51
222.0578846
0
ARC
8
back_labelLayer
10
3.5405237
20
11.1803154
40
0.1086853
50
222.5795699
51
229.2543991
0
ARC
8
back_labelLayer
10
3.5553582
20
11.1994135
40
0.1328422
50
229.7834248
51
254.2726391
0
ARC
8
back_labelLayer
10
3.5751098
20
11.265229
40
0.2015511
50
253.9393939
51
266.4532951
0
ARC
8
back_labelLayer
10
3.5814105
20
11.3377826
40
0.2743612
50
266.0773258
51
270.0596316
0
LINE
8
back_labelLayer
10
4.7366266
20
11.7559388
11
4.6991336
21
11.6522817
0
LINE
8
back_labelLayer
10
4.7248641
20
11.1126771
11
4.7248641
21
11.0046091
0
ARC
8
back_labelLayer
10
4.5173333
20
11.4187833
40
0.4560948
50
256.4242994
51
270.4889834
0
ARC
8
back_labelLayer
10
4.4808866
20
11.2765377
40
0.309275
50
221.797566
51
256.8020637
0
ARC
8
back_labelLayer
10
4.516183
20
11.3026169
40
0.3529941
50
196.0167361
51
221.1348459
0
ARC
8
back_labelLayer
10
4.6935728
20
11.3568352
40
0.538467
50
183.5914483
51
196.3538855
0
ARC
8
back_labelLayer
10
4.8923169
20
11.3743431
40
0.7379346
50
179.9390715
51
183.9815254
0
ARC
8
back_labelLayer
10
4.8277157
20
11.3794621
40
0.6733468
50
169.8977635
51
180.3688063
0
ARC
8
back_labelLayer
10
4.5933103
20
11.4228242
40
0.4349727
50
153.0875656
51
170.1050913
0
ARC
8
back_labelLayer
10
4.5043697
20
11.4653227
40
0.3364367
50
138.6551277
51
152.6854543
0
ARC
8
back_labelLayer
10
4.4877702
20
11.4774177
40
0.3159903
50
101.4913932
51
138.3132949
0
ARC
8
back_labelLayer
10
4.5258777
20
11.3188129
40
0.479042
50
89.5891826
51
102.1786995
0
ARC
8
back_labelLayer
10
4.5288082
20
11.2471266
40
0.5507163
50
77.7703066
51
89.9475381
0
ARC
8
back_labelLayer
10
4.5183999
20
11.1896872
40
0.6090602
50
74.6795068
51
77.9580106
0
ARC
8
back_labelLayer
10
4.5746978
20
11.3936384
40
0.3974821
50
70.0941367
51
74.7385611
0
ARC
8
back_labelLayer
10
4.6282417
20
11.5403704
40
0.2412869
50
63.5034252
51
70.1858314
0
ARC
8
back_labelLayer
10
4.6507636
20
11.587969
40
0.1886432
50
62.9247377
51
63.1755037
0
ARC
8
back_labelLayer
10
4.4986582
20
11.1477545
40
0.5428979
50
68.3294555
51
74.8830841
0
ARC
8
back_labelLayer
10
4.470017
20
11.0461792
40
0.6484286
50
74.7805562
51
77.4500199
0
ARC
8
back_labelLayer
10
4.5000865
20
11.1873333
40
0.5041152
50
77.2999375
51
81.7344446
0
ARC
8
back_labelLayer
10
4.5220216
20
11.3401581
40
0.3497245
50
81.6913495
51
87.5080088
0
ARC
8
back_labelLayer
10
4.5262581
20
11.4194162
40
0.2703584
50
87.6746714
51
89.9758978
0
ARC
8
back_labelLayer
10
4.5203218
20
11.4191511
40
0.2706912
50
88.719296
51
112.5668761
0
ARC
8
back_labelLayer
10
4.5010879
20
11.4827429
40
0.2046951
50
114.426595
51
161.6631882
0
ARC
8
back_labelLayer
10
4.6921621
20
11.4079539
40
0.4097404
50
160.1417391
51
175.1367942
0
ARC
8
back_labelLayer
10
4.95515
20
11.3784218
40
0.6743228
50
174.5309264
51
180.1549498
0
ARC
8
back_labelLayer
10
4.871828
20
11.3735463
40
0.5910062
50
179.7041302
51
188.0744984
0
ARC
8
back_labelLayer
10
4.6589709
20
11.3424024
40
0.3758861
50
187.931669
51
200.3883453
0
ARC
8
back_labelLayer
10
4.5438498
20
11.2997566
40
0.25312
50
200.4181946
51
216.6396036
0
ARC
8
back_labelLayer
10
4.4956018
20
11.2652637
40
0.1938242
50
216.9695525
51
261.3104083
0
ARC
8
back_labelLayer
10
4.5168989
20
11.3645609
40
0.2952613
50
260.1361655
51
270.2689998
0
ARC
8
back_labelLayer
10
4.5159156
20
11.5801521
40
0.5108547
50
270.2657656
51
286.2891435
0
ARC
8
back_labelLayer
10
4.4848726
20
11.6959322
40
0.6306999
50
286.0458857
51
292.3656509
0
ARC
8
back_labelLayer
10
4.5675679
20
11.3140458
40
0.3471212
50
282.0343189
51
296.945626
0
ARC
8
back_labelLayer
10
4.5318676
20
11.4749239
40
0.5119089
50
272.5979363
51
282.1879931
0
ARC
8
back_labelLayer
10
4.5216287
20
11.6319176
40
0.6692125
50
269.9655066
51
272.8644099
0
LINE
8
back_labelLayer
10
5.0306891
20
11.389831
11
5.0365703
21
11.389831
0
LINE
8
back_labelLayer
10
5.1328758
20
11.507456
11
5.3931211
21
11.7831396
0
LINE
8
back_labelLayer
10
5.3931211
20
11.7831396
11
5.5379469
21
11.7831396
0
LINE
8
back_labelLayer
10
5.5379469
20
11.7831396
11
5.2115375
21
11.4398216
0
LINE
8
back_labelLayer
10
5.2115375
20
11.4398216
11
5.5607367
21
10.9774083
0
LINE
8
back_labelLayer
10
5.5607367
20
10.9774083
11
5.4129703
21
10.9774083
0
LINE
8
back_labelLayer
10
5.4129703
20
10.9774083
11
5.1284648
21
11.3582192
0
LINE
8
back_labelLayer
10
5.1284648
20
11.3582192
11
5.0365703
21
11.2788224
0
LINE
8
back_labelLayer
10
5.0365703
20
11.2788224
11
5.0365703
21
10.9774083
0
LINE
8
back_labelLayer
10
5.0365703
20
10.9774083
11
4.9160047
21
10.9774083
0
LINE
8
back_labelLayer
10
4.9160047
20
10.9774083
11
4.9160047
21
12.1213114
0
LINE
8
back_labelLayer
10
4.9160047
20
12.1213114
11
5.0365703
21
12.1213114
0
LINE
8
back_labelLayer
10
5.0365703
20
12.1213114
11
5.0365703
21
11.5148075
0
ARC
8
back_labelLayer
10
5.6262511
20
10.9724304
40
0.7224588
50
142.3234769
51
144.7075575
0
ARC
8
back_labelLayer
10
6.0107533
20
10.6758609
40
1.2080463
50
140.4329884
51
142.3368368
0
ARC
8
back_labelLayer
10
6.5129748
20
10.2624381
40
1.8585415
50
139.2802863
51
140.4701605
0
ARC
8
back_labelLayer
10
7.0915278
20
9.7649179
40
2.6215943
50
138.3417301
51
139.2879128
0
ARC
8
back_labelLayer
10
4.223453
20
11.5163214
40
0.8131187
50
358.274248
51
359.8933284
0
ARC
8
back_labelLayer
10
3.5909425
20
11.5339555
40
1.4458739
50
357.5038847
51
358.3306062
0
ARC
8
back_labelLayer
10
2.6455295
20
11.5756991
40
2.3922081
50
356.6320546
51
357.4911991
0
ARC
8
back_labelLayer
10
1.0693128
20
11.6676
40
3.9711015
50
356.0331439
51
356.6444229
0
ARC
8
back_labelLayer
10
0.2325333
20
11.7238654
40
4.8097689
50
356.0176504
51
356.0540774
0
LINE
8
right_outsideCutPath
10
8.125
20
15.306
11
8.125
21
7.778
0
LINE
8
right_outsideCutPath
10
8.125
20
7.778
11
9.653
21
7.778
0
LINE
8
right_outsideCutPath
10
9.653
20
7.778
11
9.653
21
15.306
0
LINE
8
right_outsideCutPath
10
9.653
20
15.306
11
8.125
21
15.306
0
LINE
8
right_labelLayer
10
8.6670371
20
11.6273541
11
8.6636051
21
11.6043744
0
LINE
8
right_labelLayer
10
8.5976504
20
11.5503572
11
8.5976504
21
11.4626166
0
LINE
8
right_labelLayer
10
8.5976504
20
11.4626166
11
8.5728801
21
11.4626166
0
LINE
8
right_labelLayer
10
8.5728801
20
11.4626166
11
8.5728801
21
11.6261604
0
LINE
8
right_labelLayer
10
8.5728801
20
11.6261604
11
8.593323
21
11.6261604
0
LINE
8
right_labelLayer
10
8.593323
20
11.6261604
11
8.5961582
21
11.595869
0
LINE
8
right_labelLayer
10
8.5961582
20
11.595869
11
8.5973519
21
11.595869
0
ARC
8
right_labelLayer
10
8.6477457
20
11.5154812
40
0.1136638
50
84.9909921
51
90.129191
0
ARC
8
right_labelLayer
10
8.6504717
20
11.546003
40
0.0830206
50
78.4902749
51
85.0258981
0
ARC
8
right_labelLayer
10
8.6398883
20
11.4978892
40
0.1090945
50
77.443802
51
81.6373372
0
ARC
8
right_labelLayer
10
8.6446312
20
11.5305938
40
0.0760477
50
81.5891214
51
87.1918592
0
ARC
8
right_labelLayer
10
8.6456644
20
11.5485039
40
0.0581088
50
87.3442077
51
89.9660569
0
ARC
8
right_labelLayer
10
8.6454243
20
11.5636943
40
0.0429193
50
89.6335264
51
137.0884186
0
ARC
8
right_labelLayer
10
8.6558965
20
11.5519033
40
0.0586367
50
135.6170883
51
138.8383877
0
ARC
8
right_labelLayer
10
8.6544138
20
11.5533554
40
0.0565647
50
138.9572486
51
174.5420468
0
ARC
8
right_labelLayer
10
8.6728531
20
11.550473
40
0.0752027
50
173.6921425
51
180.0882167
0
ARC
8
right_labelLayer
10
8.6702395
20
11.5548043
40
0.0836595
50
139.4150777
51
150.6031935
0
ARC
8
right_labelLayer
10
8.6552322
20
11.5676614
40
0.0638976
50
124.231696
51
139.4158279
0
ARC
8
right_labelLayer
10
8.647213
20
11.5797672
40
0.0493782
50
89.6792592
51
124.4406185
0
LINE
8
right_labelLayer
10
8.7223973
20
11.6261604
11
8.7223973
21
11.4626166
0
LINE
8
right_labelLayer
10
8.7223973
20
11.4626166
11
8.6976269
21
11.4626166
0
LINE
8
right_labelLayer
10
8.6976269
20
11.4626166
11
8.6976269
21
11.6261604
0
LINE
8
right_labelLayer
10
8.6976269
20
11.6261604
11
8.7223973
21
11.6261604
0
ARC
8
right_labelLayer
10
8.7229798
20
11.6706493
40
0.0274424
50
170.8455573
51
180.3569616
0
ARC
8
right_labelLayer
10
8.7127126
20
11.6723662
40
0.0170328
50
155.9708523
51
171.0525985
0
ARC
8
right_labelLayer
10
8.7077334
20
11.6745744
40
0.0115858
50
133.7886984
51
155.9177592
0
ARC
8
right_labelLayer
10
8.7095708
20
11.6725429
40
0.014324
50
92.6448968
51
133.4715085
0
ARC
8
right_labelLayer
10
8.7101512
20
11.6679886
40
0.0189038
50
89.9691901
51
93.7650111
0
ARC
8
right_labelLayer
10
8.7103876
20
11.6722998
40
0.0145943
50
46.370941
51
90.888213
0
ARC
8
right_labelLayer
10
8.711838
20
11.6737982
40
0.0125089
50
17.7270964
51
46.444143
0
ARC
8
right_labelLayer
10
8.7050702
20
11.6714675
40
0.0196658
50
4.9416492
51
18.1913654
0
ARC
8
right_labelLayer
10
8.6964652
20
11.6705372
40
0.0283195
50
359.8808458
51
5.3171537
0
ARC
8
right_labelLayer
10
8.6991481
20
11.6703043
40
0.0256372
50
349.8378864
51
0.3889537
0
ARC
8
right_labelLayer
10
8.708487
20
11.6685635
40
0.0161378
50
332.6332103
51
350.0715964
0
ARC
8
right_labelLayer
10
8.7121162
20
11.6667721
40
0.0120914
50
313.6183373
51
332.2663758
0
ARC
8
right_labelLayer
10
8.7103687
20
11.6683635
40
0.0144499
50
269.1776002
51
314.281448
0
ARC
8
right_labelLayer
10
8.7099971
20
11.6696489
40
0.0157347
50
250.5004376
51
270.5980608
0
ARC
8
right_labelLayer
10
8.7095214
20
11.6678689
40
0.0138987
50
225.1310662
51
249.8996254
0
ARC
8
right_labelLayer
10
8.7087768
20
11.6670453
40
0.0127898
50
197.7945457
51
224.8921668
0
ARC
8
right_labelLayer
10
8.7157516
20
11.669435
40
0.0201618
50
184.9907572
51
198.2034161
0
ARC
8
right_labelLayer
10
8.7247463
20
11.6704154
40
0.0292085
50
179.8765646
51
185.3716133
0
LINE
8
right_labelLayer
10
8.8522176
20
11.6261604
11
8.9087715
21
11.6261604
0
LINE
8
right_labelLayer
10
8.9087715
20
11.6261604
11
8.9087715
21
11.6104924
0
LINE
8
right_labelLayer
10
8.9087715
20
11.6104924
11
8.8784801
21
11.6069111
0
LINE
8
right_labelLayer
10
8.8226723
20
11.4885807
11
8.8516207
21
11.4885807
0
LINE
8
right_labelLayer
10
8.8437121
20
11.4663471
11
8.8140176
21
11.4663471
0
ARC
8
right_labelLayer
10
8.8469023
20
11.5819224
40
0.040269
50
29.4598014
51
38.3559153
0
ARC
8
right_labelLayer
10
8.8304728
20
11.5725445
40
0.0591865
50
23.183531
51
29.5422122
0
ARC
8
right_labelLayer
10
8.8148137
20
11.5655966
40
0.0763166
50
21.2507903
51
23.3503618
0
ARC
8
right_labelLayer
10
8.8414493
20
11.57619
40
0.0476531
50
6.8503546
51
20.9875273
0
ARC
8
right_labelLayer
10
8.8280186
20
11.5743699
40
0.0612054
50
359.8711755
51
7.0424047
0
ARC
8
right_labelLayer
10
8.8324458
20
11.5736413
40
0.0567811
50
342.5643591
51
0.5963365
0
ARC
8
right_labelLayer
10
8.8429159
20
11.5707496
40
0.0459272
50
310.6091535
51
342.0923733
0
ARC
8
right_labelLayer
10
8.8370432
20
11.5775785
40
0.0549342
50
284.9311745
51
310.6230952
0
ARC
8
right_labelLayer
10
8.8296937
20
11.6033322
40
0.0817131
50
272.5330833
51
285.2577368
0
ARC
8
right_labelLayer
10
8.8278036
20
11.629096
40
0.1075381
50
269.9691448
51
272.9324586
0
ARC
8
right_labelLayer
10
8.8275707
20
11.6011819
40
0.0796241
50
263.4838218
51
270.1259253
0
ARC
8
right_labelLayer
10
8.8262862
20
11.5889446
40
0.0673202
50
259.499544
51
263.3880136
0
ARC
8
right_labelLayer
10
8.8343
20
11.4836121
40
0.0440828
50
117.3934948
51
128.4082777
0
ARC
8
right_labelLayer
10
8.8229479
20
11.4976965
40
0.0259939
50
128.0876663
51
147.1422039
0
ARC
8
right_labelLayer
10
8.8168379
20
11.5017961
40
0.0186377
50
147.5380377
51
180.2589102
0
ARC
8
right_labelLayer
10
8.8110373
20
11.5015527
40
0.0128379
50
179.289319
51
198.3560004
0
ARC
8
right_labelLayer
10
8.808634
20
11.5009217
40
0.0103592
50
199.2299016
51
239.568857
0
ARC
8
right_labelLayer
10
8.8107796
20
11.5039291
40
0.0140428
50
238.2354485
51
239.8269274
0
ARC
8
right_labelLayer
10
8.8122182
20
11.5069487
40
0.0173785
50
240.73027
51
254.5005153
0
ARC
8
right_labelLayer
10
8.8169597
20
11.5232951
40
0.0343981
50
254.1661021
51
262.2131105
0
ARC
8
right_labelLayer
10
8.8207164
20
11.5495291
40
0.0608996
50
262.0553992
51
267.207823
0
ARC
8
right_labelLayer
10
8.8225339
20
11.5828331
40
0.0942527
50
267.0904663
51
270.0840892
0
ARC
8
right_labelLayer
10
8.8521622
20
11.3871777
40
0.1014045
50
81.5752165
51
90.3059818
0
ARC
8
right_labelLayer
10
8.8577244
20
11.4234628
40
0.0646961
50
68.3664542
51
81.7399114
0
ARC
8
right_labelLayer
10
8.8649898
20
11.442027
40
0.0447612
50
52.1874528
51
68.2507531
0
ARC
8
right_labelLayer
10
8.8700719
20
11.4488736
40
0.036237
50
8.619549
51
51.8987403
0
ARC
8
right_labelLayer
10
8.8522545
20
11.4451047
40
0.0544283
50
359.7419895
51
9.7312378
0
ARC
8
right_labelLayer
10
8.853054
20
11.444186
40
0.0536326
50
340.5264392
51
0.7196225
0
ARC
8
right_labelLayer
10
8.8609332
20
11.4422242
40
0.045557
50
302.9908378
51
339.5490241
0
ARC
8
right_labelLayer
10
8.8524554
20
11.4530375
40
0.0592556
50
303.1942078
51
304.1734069
0
ARC
8
right_labelLayer
10
8.8449537
20
11.4660793
40
0.0742811
50
286.2544302
51
302.5288565
0
ARC
8
right_labelLayer
10
8.8309253
20
11.5123541
40
0.1226337
50
276.4934881
51
286.4951404
0
ARC
8
right_labelLayer
10
8.8221689
20
11.5855318
40
0.1963327
50
269.7549764
51
276.6173847
0
ARC
8
right_labelLayer
10
8.8206742
20
11.5279575
40
0.138758
50
262.5627605
51
270.2704869
0
ARC
8
right_labelLayer
10
8.8138799
20
11.4776095
40
0.0879545
50
251.211202
51
262.7061348
0
ARC
8
right_labelLayer
10
8.804083
20
11.4488484
40
0.0575704
50
235.9678157
51
251.2226197
0
ARC
8
right_labelLayer
10
8.7936965
20
11.4340289
40
0.0394774
50
208.9028751
51
236.4231038
0
ARC
8
right_labelLayer
10
8.7946537
20
11.4336311
40
0.0401315
50
182.2091104
51
207.7450994
0
ARC
8
right_labelLayer
10
8.8067601
20
11.4348423
40
0.0522808
50
179.9784408
51
183.024056
0
ARC
8
right_labelLayer
10
8.7923485
20
11.4355261
40
0.0378751
50
138.3913382
51
181.0048164
0
ARC
8
right_labelLayer
10
8.7963472
20
11.4319327
40
0.0432512
50
113.8114511
51
138.3496074
0
ARC
8
right_labelLayer
10
8.8039365
20
11.4155436
40
0.0613103
50
102.2874963
51
114.1166673
0
ARC
8
right_labelLayer
10
8.8015502
20
11.4988415
40
0.0257072
50
216.5855603
51
245.4976216
0
ARC
8
right_labelLayer
10
8.8054496
20
11.5021245
40
0.0307965
50
215.4715567
51
217.1661295
0
ARC
8
right_labelLayer
10
8.7991006
20
11.4975367
40
0.0229637
50
182.1757595
51
215.3416649
0
ARC
8
right_labelLayer
10
8.8046898
20
11.4981264
40
0.0285738
50
179.9913763
51
182.9318788
0
ARC
8
right_labelLayer
10
8.804443
20
11.4983701
40
0.028328
50
161.7235505
51
180.4841766
0
ARC
8
right_labelLayer
10
8.8013271
20
11.4992197
40
0.0251034
50
144.4963445
51
161.3348032
0
ARC
8
right_labelLayer
10
8.8096268
20
11.4930342
40
0.0354528
50
132.7252062
51
144.1481377
0
ARC
8
right_labelLayer
10
8.8229281
20
11.47883
40
0.0549125
50
125.2195337
51
132.8650934
0
ARC
8
right_labelLayer
10
8.8363166
20
11.4602356
40
0.0778248
50
121.2336331
51
125.3771982
0
ARC
8
right_labelLayer
10
8.812598
20
11.5668928
40
0.043425
50
215.1642788
51
247.474463
0
ARC
8
right_labelLayer
10
8.8207076
20
11.5734378
40
0.0538284
50
212.4724386
51
215.8882378
0
ARC
8
right_labelLayer
10
8.8185725
20
11.5719091
40
0.0512065
50
183.0161852
51
212.3120559
0
ARC
8
right_labelLayer
10
8.8297746
20
11.5731615
40
0.0624626
50
179.9759172
51
183.6226426
0
ARC
8
right_labelLayer
10
8.8388718
20
11.573793
40
0.0715623
50
166.8196237
51
180.4846342
0
ARC
8
right_labelLayer
10
8.8151333
20
11.5797865
40
0.0470843
50
132.3283335
51
167.3341529
0
ARC
8
right_labelLayer
10
8.8183083
20
11.5752242
40
0.0526002
50
106.2179282
51
131.5387203
0
ARC
8
right_labelLayer
10
8.8263449
20
11.5492093
40
0.0798258
50
93.632109
51
106.5416719
0
ARC
8
right_labelLayer
10
8.8289731
20
11.5197448
40
0.1094002
50
89.9394582
51
94.028212
0
ARC
8
right_labelLayer
10
8.8293938
20
11.534173
40
0.0949722
50
82.5864785
51
90.1841132
0
ARC
8
right_labelLayer
10
8.8322996
20
11.5566639
40
0.0722944
50
74.0075099
51
82.5702375
0
ARC
8
right_labelLayer
10
8.8032312
20
11.4348221
40
0.0248792
50
179.2210085
51
200.9344808
0
ARC
8
right_labelLayer
10
8.800272
20
11.4341377
40
0.0218747
50
202.0295409
51
236.145074
0
ARC
8
right_labelLayer
10
8.8047043
20
11.4397639
40
0.0290214
50
235.0660058
51
238.5117617
0
ARC
8
right_labelLayer
10
8.8099099
20
11.4490487
40
0.0396603
50
239.1050768
51
254.4881359
0
ARC
8
right_labelLayer
10
8.8168226
20
11.4728817
40
0.0644746
50
254.2330468
51
263.4950419
0
ARC
8
right_labelLayer
10
8.8211641
20
11.5096488
40
0.1014971
50
263.4113597
51
270.1467031
0
LINE
8
right_labelLayer
10
8.821424
20
11.4081519
11
8.8216277
21
11.4081518
0
ARC
8
right_labelLayer
10
8.8222213
20
11.5746971
40
0.1665464
50
269.7958021
51
275.3982414
0
ARC
8
right_labelLayer
10
8.8284554
20
11.5106839
40
0.1022307
50
275.2949953
51
283.3513256
0
ARC
8
right_labelLayer
10
8.8386059
20
11.4688735
40
0.0592066
50
283.1372555
51
295.8562866
0
ARC
8
right_labelLayer
10
8.8461224
20
11.4524591
40
0.0411591
50
296.4054724
51
301.7992034
0
ARC
8
right_labelLayer
10
8.8490786
20
11.4483798
40
0.0361361
50
301.2237204
51
318.6228842
0
ARC
8
right_labelLayer
10
8.8557337
20
11.4422313
40
0.0270789
50
319.0769679
51
1.1410994
0
ARC
8
right_labelLayer
10
8.8492929
20
11.443036
40
0.0335156
50
359.5461581
51
10.9898486
0
ARC
8
right_labelLayer
10
8.8622399
20
11.445669
40
0.0203044
50
10.6610396
51
30.9361495
0
ARC
8
right_labelLayer
10
8.8663422
20
11.4479447
40
0.0156165
50
31.5118668
51
58.0748406
0
ARC
8
right_labelLayer
10
8.8624974
20
11.4410583
40
0.0234974
50
58.9974703
51
73.8585086
0
ARC
8
right_labelLayer
10
8.8547226
20
11.4156111
40
0.0501045
50
73.4083082
51
81.5900967
0
ARC
8
right_labelLayer
10
8.8481294
20
11.3729269
40
0.0932943
50
81.4183484
51
86.5743356
0
ARC
8
right_labelLayer
10
8.8440941
20
11.3086435
40
0.1577041
50
86.506449
51
90.138795
0
ARC
8
right_labelLayer
10
8.8136622
20
11.4094124
40
0.0569358
50
89.6423493
51
100.0204831
0
ARC
8
right_labelLayer
10
8.8100868
20
11.4288699
40
0.0371531
50
99.8118672
51
116.8213068
0
ARC
8
right_labelLayer
10
8.8065948
20
11.4362346
40
0.0290058
50
117.2297281
51
130.5049253
0
ARC
8
right_labelLayer
10
8.8048084
20
11.4385288
40
0.0261016
50
130.7942856
51
169.0413082
0
ARC
8
right_labelLayer
10
8.8179941
20
11.4354239
40
0.0396408
50
168.2583473
51
180.3808417
0
ARC
8
right_labelLayer
10
8.8401311
20
11.5734148
40
0.0483485
50
179.561795
51
191.6535635
0
ARC
8
right_labelLayer
10
8.823323
20
11.5697829
40
0.0311538
50
191.3558363
51
213.3659448
0
ARC
8
right_labelLayer
10
8.8192819
20
11.567448
40
0.026496
50
213.9551454
51
227.7974502
0
ARC
8
right_labelLayer
10
8.8227968
20
11.5717099
40
0.0320152
50
228.2613376
51
254.7349725
0
ARC
8
right_labelLayer
10
8.8272857
20
11.5870958
40
0.0480409
50
254.4014926
51
267.4343035
0
ARC
8
right_labelLayer
10
8.8284558
20
11.602865
40
0.0638483
50
267.0187396
51
270.0322773
0
ARC
8
right_labelLayer
10
8.8292218
20
11.5929733
40
0.0539616
50
269.2249065
51
284.3770678
0
ARC
8
right_labelLayer
10
8.836576
20
11.5673499
40
0.0273251
50
282.7799678
51
346.4826799
0
ARC
8
right_labelLayer
10
8.8145822
20
11.5735791
40
0.050174
50
345.4366881
51
0.7458182
0
ARC
8
right_labelLayer
10
8.8114898
20
11.5749933
40
0.0532676
50
359.1814082
51
15.0423287
0
ARC
8
right_labelLayer
10
8.8356293
20
11.5820341
40
0.028133
50
13.9534689
51
77.667396
0
ARC
8
right_labelLayer
10
8.8287056
20
11.5572257
40
0.0538676
50
76.1087866
51
90.7035879
0
ARC
8
right_labelLayer
10
8.8276676
20
11.5591272
40
0.0519635
50
89.5848348
51
101.3349437
0
ARC
8
right_labelLayer
10
8.8239534
20
11.5768328
40
0.0338736
50
101.0612767
51
121.9742569
0
ARC
8
right_labelLayer
10
8.8213467
20
11.5815232
40
0.0285157
50
122.5218625
51
134.9953494
0
ARC
8
right_labelLayer
10
8.8224183
20
11.5808832
40
0.0297275
50
135.5837204
51
163.0015705
0
ARC
8
right_labelLayer
10
8.8381047
20
11.5757402
40
0.0462333
50
162.589515
51
175.7362089
0
ARC
8
right_labelLayer
10
8.8568876
20
11.5738851
40
0.0651037
50
175.3371329
51
180.0884715
0
LINE
8
right_labelLayer
10
9.0790301
20
11.4626166
11
9.0542598
21
11.4626166
0
LINE
8
right_labelLayer
10
9.0542598
20
11.4626166
11
9.0542598
21
11.5684127
0
LINE
8
right_labelLayer
10
8.967116
20
11.548119
11
8.967116
21
11.4626166
0
LINE
8
right_labelLayer
10
8.967116
20
11.4626166
11
8.9423457
21
11.4626166
0
LINE
8
right_labelLayer
10
8.9423457
20
11.4626166
11
8.9423457
21
11.694801
0
LINE
8
right_labelLayer
10
8.9423457
20
11.694801
11
8.967116
21
11.694801
0
LINE
8
right_labelLayer
10
8.967116
20
11.694801
11
8.967116
21
11.624519
0
LINE
8
right_labelLayer
10
8.9659223
20
11.6034791
11
8.9674144
21
11.6034791
0
LINE
8
right_labelLayer
10
9.0790301
20
11.569308
11
9.0790301
21
11.4626166
0
ARC
8
right_labelLayer
10
8.9842227
20
11.5688131
40
0.0700382
50
359.6724338
51
8.6863327
0
ARC
8
right_labelLayer
10
9.0102008
20
11.5729324
40
0.0437362
50
8.4915873
51
22.6591673
0
ARC
8
right_labelLayer
10
9.0233765
20
11.5784081
40
0.029468
50
22.7036136
51
42.3420534
0
ARC
8
right_labelLayer
10
9.0248595
20
11.5790755
40
0.027927
50
43.3793626
51
71.5384079
0
ARC
8
right_labelLayer
10
9.0193177
20
11.5635877
40
0.044374
50
71.0837571
51
84.369495
0
ARC
8
right_labelLayer
10
9.0168315
20
11.5424466
40
0.0656584
50
84.020468
51
90.1525862
0
ARC
8
right_labelLayer
10
9.0161228
20
11.5331477
40
0.0749591
50
89.5919335
51
100.3594194
0
ARC
8
right_labelLayer
10
9.0108131
20
11.561046
40
0.0465612
50
100.105425
51
118.0853817
0
ARC
8
right_labelLayer
10
9.0054162
20
11.5716352
40
0.0346788
50
118.4552824
51
139.6714324
0
ARC
8
right_labelLayer
10
9.010839
20
11.5679281
40
0.0412177
50
140.6214615
51
160.5040393
0
ARC
8
right_labelLayer
10
9.0394012
20
11.5573538
40
0.0716727
50
160.1557522
51
171.5307242
0
ARC
8
right_labelLayer
10
9.0856641
20
11.550027
40
0.1185107
50
171.3211923
51
178.3394157
0
ARC
8
right_labelLayer
10
9.1268775
20
11.548183
40
0.1597616
50
178.106715
51
180.0229834
0
ARC
8
right_labelLayer
10
8.7440559
20
11.6242583
40
0.2230603
50
357.8683836
51
0.0669628
0
ARC
8
right_labelLayer
10
8.8198065
20
11.6213766
40
0.1472549
50
354.984637
51
357.892568
0
ARC
8
right_labelLayer
10
8.8701498
20
11.6169929
40
0.0967212
50
351.9684073
51
354.9643223
0
ARC
8
right_labelLayer
10
9.0093698
20
11.5772349
40
0.0494874
50
119.8308785
51
147.9728976
0
ARC
8
right_labelLayer
10
9.0154011
20
11.5679594
40
0.0605374
50
116.6682523
51
120.4159247
0
ARC
8
right_labelLayer
10
9.0164839
20
11.5650838
40
0.0635939
50
96.6658335
51
116.3772607
0
ARC
8
right_labelLayer
10
9.0188937
20
11.5484561
40
0.0803904
50
89.8927673
51
96.9960557
0
ARC
8
right_labelLayer
10
9.0196634
20
11.5283418
40
0.1005064
50
80.686548
51
90.353024
0
ARC
8
right_labelLayer
10
9.0259234
20
11.5651623
40
0.0631586
50
65.6016242
51
80.8849044
0
ARC
8
right_labelLayer
10
9.0334349
20
11.5820799
40
0.0446493
50
46.7399764
51
65.4121246
0
ARC
8
right_labelLayer
10
9.0339462
20
11.5836936
40
0.0431301
50
19.2204518
51
45.7655259
0
ARC
8
right_labelLayer
10
9.0090743
20
11.5744733
40
0.069653
50
6.4742726
51
19.6468748
0
ARC
8
right_labelLayer
10
8.9719291
20
11.5696922
40
0.1071017
50
359.7944906
51
6.7750666
0
LINE
8
right_labelLayer
10
9.2051199
20
11.4830596
11
9.2051199
21
11.4641088
0
LINE
8
right_labelLayer
10
9.1317043
20
11.5096205
11
9.1317043
21
11.6069111
0
LINE
8
right_labelLayer
10
9.1317043
20
11.6069111
11
9.1082769
21
11.6069111
0
LINE
8
right_labelLayer
10
9.1082769
20
11.6069111
11
9.1082769
21
11.6188486
0
LINE
8
right_labelLayer
10
9.1082769
20
11.6188486
11
9.1317043
21
11.6291447
0
LINE
8
right_labelLayer
10
9.1317043
20
11.6291447
11
9.1421496
21
11.6640619
0
LINE
8
right_labelLayer
10
9.1421496
20
11.6640619
11
9.1564746
21
11.6640619
0
LINE
8
right_labelLayer
10
9.1564746
20
11.6640619
11
9.1564746
21
11.6261604
0
LINE
8
right_labelLayer
10
9.1564746
20
11.6261604
11
9.2039262
21
11.6261604
0
LINE
8
right_labelLayer
10
9.2039262
20
11.6261604
11
9.2039262
21
11.6069111
0
LINE
8
right_labelLayer
10
9.2039262
20
11.6069111
11
9.1564746
21
11.6069111
0
LINE
8
right_labelLayer
10
9.1564746
20
11.6069111
11
9.1564746
21
11.5106651
0
ARC
8
right_labelLayer
10
9.1829057
20
11.56143
40
0.081355
50
269.8812582
51
278.3031178
0
ARC
8
right_labelLayer
10
9.1830614
20
11.5591674
40
0.0790939
50
278.4282038
51
278.9899374
0
ARC
8
right_labelLayer
10
9.1745352
20
11.6134906
40
0.1340821
50
278.9612553
51
280.5117195
0
ARC
8
right_labelLayer
10
9.1831966
20
11.5670212
40
0.0868125
50
280.4863988
51
282.6212067
0
ARC
8
right_labelLayer
10
9.1908838
20
11.5328303
40
0.051768
50
282.587377
51
285.5797328
0
ARC
8
right_labelLayer
10
9.1934688
20
11.5230887
40
0.0416902
50
285.7534132
51
286.2284624
0
ARC
8
right_labelLayer
10
9.1947069
20
11.4861342
40
0.0243628
50
287.9871584
51
295.3035624
0
ARC
8
right_labelLayer
10
9.1888278
20
11.503918
40
0.0430932
50
283.3077371
51
288.1201242
0
ARC
8
right_labelLayer
10
9.1826101
20
11.5298712
40
0.0697807
50
280.0073458
51
283.3708129
0
ARC
8
right_labelLayer
10
9.1785421
20
11.5518864
40
0.0921681
50
279.1867597
51
280.119511
0
ARC
8
right_labelLayer
10
9.1758999
20
11.5669946
40
0.1075045
50
275.5284772
51
279.2913559
0
ARC
8
right_labelLayer
10
9.1787965
20
11.5367466
40
0.0771181
50
270.8905906
51
275.5515188
0
ARC
8
right_labelLayer
10
9.1791524
20
11.5230501
40
0.0634179
50
270.0031153
51
270.761388
0
ARC
8
right_labelLayer
10
9.1781557
20
11.5243201
40
0.0646956
50
253.7850671
51
270.8857665
0
ARC
8
right_labelLayer
10
9.1704916
20
11.4981813
40
0.0374563
50
190.3820805
51
253.8771934
0
ARC
8
right_labelLayer
10
9.209557
20
11.5087434
40
0.0778575
50
179.3544877
51
192.8474965
0
ARC
8
right_labelLayer
10
9.20635
20
11.510352
40
0.0498764
50
179.6403664
51
189.7498935
0
ARC
8
right_labelLayer
10
9.1887412
20
11.5072118
40
0.0319902
50
189.5478051
51
205.7888843
0
ARC
8
right_labelLayer
10
9.1815079
20
11.5038753
40
0.0240262
50
206.1291397
51
221.4083863
0
ARC
8
right_labelLayer
10
9.1806973
20
11.5032605
40
0.0230118
50
221.5952549
51
262.3495596
0
ARC
8
right_labelLayer
10
9.1826265
20
11.5131866
40
0.0331115
50
261.3275541
51
270.1913436
0
LINE
8
bottom_outsideCutPath
10
9.778
20
4.25
11
9.778
21
2.25
0
LINE
8
bottom_outsideCutPath
10
9.778
20
2.25
11
17.778
21
2.25
0
LINE
8
bottom_outsideCutPath
10
17.778
20
2.25
11
17.778
21
4.25
0
LINE
8
bottom_outsideCutPath
10
17.778
20
4.25
11
9.778
21
4.25
0
LINE
8
bottom_labelLayer
10
13.1524131
20
3.1275441
11
13.1500693
21
3.1275441
0
LINE
8
bottom_labelLayer
10
13.1500693
20
3.1275441
11
13.1432334
21
3.1000051
0
LINE
8
bottom_labelLayer
10
13.1432334
20
3.1000051
11
13.1199912
21
3.1000051
0
LINE
8
bottom_labelLayer
10
13.1199912
20
3.1000051
11
13.1199912
21
3.4039113
0
LINE
8
bottom_labelLayer
10
13.1199912
20
3.4039113
11
13.1524131
21
3.4039113
0
LINE
8
bottom_labelLayer
10
13.1524131
20
3.4039113
11
13.1524131
21
3.3300832
0
LINE
8
bottom_labelLayer
10
13.1508506
20
3.2855519
11
13.1524131
21
3.2855519
0
ARC
8
bottom_labelLayer
10
13.2205726
20
3.2184906
40
0.0990973
50
74.2397741
51
90.5620192
0
ARC
8
bottom_labelLayer
10
13.227126
20
3.2425338
40
0.0741783
50
38.5628134
51
74.0671791
0
ARC
8
bottom_labelLayer
10
13.2102616
20
3.2294211
40
0.0955395
50
16.4709473
51
38.4071188
0
ARC
8
bottom_labelLayer
10
13.1616717
20
3.2141865
40
0.1464575
50
5.1344177
51
16.7967287
0
ARC
8
bottom_labelLayer
10
13.1003832
20
3.207675
40
0.2080852
50
359.8779135
51
5.4099144
0
ARC
8
bottom_labelLayer
10
13.1183694
20
3.2061112
40
0.1901017
50
350.6561768
51
0.3376853
0
ARC
8
bottom_labelLayer
10
13.184644
20
3.1948388
40
0.1228769
50
335.8305081
51
350.8252596
0
ARC
8
bottom_labelLayer
10
13.2137869
20
3.1822618
40
0.0911405
50
321.3170207
51
335.5427567
0
ARC
8
bottom_labelLayer
10
13.2249409
20
3.173175
40
0.0767542
50
274.0641724
51
321.4080613
0
ARC
8
bottom_labelLayer
10
13.2197472
20
3.2061161
40
0.1100173
50
269.923666
51
275.5465178
0
ARC
8
bottom_labelLayer
10
13.2190539
20
3.1944411
40
0.0983438
50
255.7756678
51
270.3184952
0
ARC
8
bottom_labelLayer
10
13.2162504
20
3.1819803
40
0.0855769
50
245.980847
51
255.5451934
0
ARC
8
bottom_labelLayer
10
13.2108115
20
3.1693304
40
0.0718086
50
215.5851757
51
245.8363402
0
ARC
8
bottom_labelLayer
10
12.4768088
20
3.329506
40
0.6756046
50
358.111779
51
0.0489456
0
ARC
8
bottom_labelLayer
10
12.6642013
20
3.3232152
40
0.4881065
50
355.7248488
51
358.1250367
0
ARC
8
bottom_labelLayer
10
12.7418151
20
3.3179788
40
0.4103188
50
355.4672747
51
355.6460874
0
ARC
8
bottom_labelLayer
10
13.2128787
20
3.2433875
40
0.0737152
50
95.1836913
51
145.1108229
0
ARC
8
bottom_labelLayer
10
13.2193593
20
3.2068508
40
0.1107328
50
89.8751698
51
96.815372
0
ARC
8
bottom_labelLayer
10
13.2142343
20
3.1993305
40
0.0911068
50
89.5731237
51
100.7325835
0
ARC
8
bottom_labelLayer
10
13.2074898
20
3.2334046
40
0.0563734
50
100.4469439
51
119.6699918
0
ARC
8
bottom_labelLayer
10
13.2012322
20
3.2451018
40
0.0431137
50
120.1390369
51
142.4263053
0
ARC
8
bottom_labelLayer
10
13.2115834
20
3.2382531
40
0.055501
50
143.3388352
51
161.2564233
0
ARC
8
bottom_labelLayer
10
13.2548577
20
3.2228895
40
0.1014194
50
160.8929332
51
171.2331636
0
ARC
8
bottom_labelLayer
10
13.3271212
20
3.211235
40
0.1746157
50
171.0676758
51
177.845213
0
ARC
8
bottom_labelLayer
10
13.4024701
20
3.2074124
40
0.2500571
50
177.6191067
51
180.04143
0
ARC
8
bottom_labelLayer
10
13.3667681
20
3.2063928
40
0.2143567
50
179.7757899
51
185.7074399
0
ARC
8
bottom_labelLayer
10
13.2822413
20
3.1976822
40
0.1293828
50
185.5917073
51
194.2057914
0
ARC
8
bottom_labelLayer
10
13.2281162
20
3.1836324
40
0.0734657
50
193.9425427
51
208.0224392
0
ARC
8
bottom_labelLayer
10
13.2062378
20
3.1725052
40
0.0489266
50
208.5566716
51
217.5586365
0
ARC
8
bottom_labelLayer
10
13.2044309
20
3.1717482
40
0.0470355
50
218.1693317
51
253.8048401
0
ARC
8
bottom_labelLayer
10
13.2131538
20
3.1986377
40
0.0752961
50
253.1375139
51
266.8489951
0
ARC
8
bottom_labelLayer
10
13.2155984
20
3.2274156
40
0.1041683
50
266.3764729
51
270.0527887
0
ARC
8
bottom_labelLayer
10
13.2163859
20
3.1878785
40
0.064635
50
269.3869295
51
285.8625311
0
ARC
8
bottom_labelLayer
10
13.2211875
20
3.1705223
40
0.0466274
50
286.016399
51
326.8494188
0
ARC
8
bottom_labelLayer
10
13.1980113
20
3.185875
40
0.074427
50
326.7107525
51
343.6663326
0
ARC
8
bottom_labelLayer
10
13.1546325
20
3.1991314
40
0.1197843
50
343.4167157
51
353.6369038
0
ARC
8
bottom_labelLayer
10
13.0890982
20
3.2069072
40
0.1857772
50
353.4935401
51
0.220526
0
ARC
8
bottom_labelLayer
10
13.0833357
20
3.2083992
40
0.1915399
50
359.7675795
51
6.3094138
0
ARC
8
bottom_labelLayer
10
13.155476
20
3.2166781
40
0.118927
50
6.1645693
51
16.0392106
0
ARC
8
bottom_labelLayer
10
13.2019194
20
3.2303603
40
0.0705118
50
15.7811854
51
31.9754636
0
ARC
8
bottom_labelLayer
10
13.2164391
20
3.2386641
40
0.0538016
50
32.6624759
51
35.5262249
0
ARC
8
bottom_labelLayer
10
13.2217534
20
3.2424437
40
0.0472804
50
35.5407607
51
79.8014224
0
ARC
8
bottom_labelLayer
10
13.2154038
20
3.2154496
40
0.0749868
50
78.6783845
51
90.3749631
0
ARC
8
bottom_labelLayer
10
13.3824041
20
3.2061035
40
0.1674738
50
349.1759766
51
0.3859435
0
ARC
8
bottom_labelLayer
10
13.4387896
20
3.1948625
40
0.1099815
50
330.2506036
51
349.4115498
0
ARC
8
bottom_labelLayer
10
13.4561502
20
3.1858369
40
0.0904338
50
318.1434308
51
329.7574593
0
ARC
8
bottom_labelLayer
10
13.4592737
20
3.1833337
40
0.0864372
50
278.8957336
51
317.9977466
0
ARC
8
bottom_labelLayer
10
13.451205
20
3.2219945
40
0.1258967
50
269.7498124
51
279.8029106
0
ARC
8
bottom_labelLayer
10
13.4498952
20
3.2002093
40
0.1041132
50
253.541598
51
270.4183125
0
ARC
8
bottom_labelLayer
10
13.4464272
20
3.1867998
40
0.090272
50
238.8109875
51
253.2411664
0
ARC
8
bottom_labelLayer
10
13.445311
20
3.1845564
40
0.087775
50
207.7950395
51
238.6759821
0
ARC
8
bottom_labelLayer
10
13.4613367
20
3.1943731
40
0.1065361
50
205.6555736
51
208.4464019
0
ARC
8
bottom_labelLayer
10
13.4737199
20
3.1995354
40
0.1199356
50
188.9098649
51
205.3173114
0
ARC
8
bottom_labelLayer
10
13.5153839
20
3.2065921
40
0.1621906
50
179.7740663
51
189.0930445
0
ARC
8
bottom_labelLayer
10
13.5215317
20
3.2083718
40
0.1683412
50
169.2442527
51
180.388085
0
ARC
8
bottom_labelLayer
10
13.464366
20
3.2196717
40
0.1100719
50
150.7113718
51
169.4695822
0
ARC
8
bottom_labelLayer
10
13.4461144
20
3.229044
40
0.0895715
50
138.1757649
51
150.2286795
0
ARC
8
bottom_labelLayer
10
13.4430796
20
3.2313732
40
0.0857573
50
99.175979
51
137.9832858
0
ARC
8
bottom_labelLayer
10
13.4514348
20
3.1920538
40
0.1259214
50
89.7325871
51
100.0760905
0
ARC
8
bottom_labelLayer
10
13.4531053
20
3.2090366
40
0.1089426
50
73.5220791
51
90.5695208
0
ARC
8
bottom_labelLayer
10
13.4594947
20
3.232248
40
0.0848734
50
41.1441631
51
73.2136318
0
ARC
8
bottom_labelLayer
10
13.4472966
20
3.2217635
40
0.1009577
50
13.5016203
51
41.0701942
0
ARC
8
bottom_labelLayer
10
13.4001821
20
3.2094337
40
0.1496521
50
1.1276734
51
13.8802943
0
ARC
8
bottom_labelLayer
10
13.3592961
20
3.2072585
40
0.1905778
50
359.9919259
51
1.5396018
0
ARC
8
bottom_labelLayer
10
13.5509664
20
3.206389
40
0.1641805
50
179.7059533
51
187.916232
0
ARC
8
bottom_labelLayer
10
13.4907479
20
3.1977372
40
0.1033446
50
187.7633374
51
200.097646
0
ARC
8
bottom_labelLayer
10
13.457581
20
3.1855848
40
0.0680214
50
200.0845607
51
216.9125271
0
ARC
8
bottom_labelLayer
10
13.445465
20
3.1769346
40
0.0531399
50
217.3011703
51
261.7097209
0
ARC
8
bottom_labelLayer
10
13.4510896
20
3.2037691
40
0.0805228
50
260.5024687
51
270.2468821
0
ARC
8
bottom_labelLayer
10
13.4521612
20
3.1985521
40
0.0753083
50
269.4486893
51
284.7259451
0
ARC
8
bottom_labelLayer
10
13.4581238
20
3.1764415
40
0.0524087
50
284.5659952
51
322.6332968
0
ARC
8
bottom_labelLayer
10
13.4441848
20
3.1865111
40
0.0695997
50
323.0093111
51
342.6394859
0
ARC
8
bottom_labelLayer
10
13.4043179
20
3.1995413
40
0.1115399
50
342.3615719
51
353.7538372
0
ARC
8
bottom_labelLayer
10
13.3454809
20
3.2066328
40
0.1708005
50
353.5364709
51
0.2008633
0
ARC
8
bottom_labelLayer
10
13.3544959
20
3.2080572
40
0.1617865
50
359.7076176
51
7.8965616
0
ARC
8
bottom_labelLayer
10
13.4137554
20
3.2165501
40
0.1019224
50
7.7442274
51
20.0691467
0
ARC
8
bottom_labelLayer
10
13.4467649
20
3.2286628
40
0.0667608
50
20.0263256
51
37.4341838
0
ARC
8
bottom_labelLayer
10
13.4577237
20
3.2364383
40
0.0533348
50
37.9576074
51
80.4006228
0
ARC
8
bottom_labelLayer
10
13.4514981
20
3.2086579
40
0.0817782
50
79.3455368
51
90.3168042
0
ARC
8
bottom_labelLayer
10
13.4503471
20
3.213277
40
0.0771609
50
89.4811205
51
103.8809013
0
ARC
8
bottom_labelLayer
10
13.4438633
20
3.2379662
40
0.0516387
50
103.4687874
51
142.3117896
0
ARC
8
bottom_labelLayer
10
13.4564668
20
3.2291025
40
0.067035
50
142.9023963
51
162.3749438
0
ARC
8
bottom_labelLayer
10
13.4961959
20
3.2158638
40
0.1089092
50
162.065709
51
173.1666032
0
ARC
8
bottom_labelLayer
10
13.5581009
20
3.2079699
40
0.1713143
50
173.0086608
51
180.2469003
0
LINE
8
bottom_labelLayer
10
13.7051475
20
3.1267629
11
13.7051475
21
3.1019582
0
LINE
8
bottom_labelLayer
10
13.6090537
20
3.1615285
11
13.6090537
21
3.2888722
0
LINE
8
bottom_labelLayer
10
13.6090537
20
3.2888722
11
13.5783897
21
3.2888722
0
LINE
8
bottom_labelLayer
10
13.5783897
20
3.2888722
11
13.5783897
21
3.3044972
0
LINE
8
bottom_labelLayer
10
13.5783897
20
3.3044972
11
13.6090537
21
3.3179738
0
LINE
8
bottom_labelLayer
10
13.6090537
20
3.3179738
11
13.6227256
21
3.3636769
0
LINE
8
bottom_labelLayer
10
13.6227256
20
3.3636769
11
13.6414756
21
3.3636769
0
LINE
8
bottom_labelLayer
10
13.6414756
20
3.3636769
11
13.6414756
21
3.3140676
0
LINE
8
bottom_labelLayer
10
13.6414756
20
3.3140676
11
13.703585
21
3.3140676
0
LINE
8
bottom_labelLayer
10
13.703585
20
3.3140676
11
13.703585
21
3.2888722
0
LINE
8
bottom_labelLayer
10
13.703585
20
3.2888722
11
13.6414756
21
3.2888722
0
LINE
8
bottom_labelLayer
10
13.6414756
20
3.2888722
11
13.6414756
21
3.1628957
0
ARC
8
bottom_labelLayer
10
13.6760716
20
3.2293532
40
0.1064968
50
269.881121
51
278.3020978
0
ARC
8
bottom_labelLayer
10
13.6777688
20
3.2165531
40
0.0935859
50
278.4054245
51
279.026822
0
ARC
8
bottom_labelLayer
10
13.6649973
20
3.2982001
40
0.1762258
50
278.9628177
51
280.5068977
0
ARC
8
bottom_labelLayer
10
13.6765962
20
3.2359415
40
0.112896
50
280.4808493
51
282.6295187
0
ARC
8
bottom_labelLayer
10
13.6865197
20
3.1918851
40
0.0677358
50
282.5866869
51
285.5800748
0
ARC
8
bottom_labelLayer
10
13.6924422
20
3.1702977
40
0.045351
50
285.6978323
51
286.2694347
0
ARC
8
bottom_labelLayer
10
13.6915241
20
3.130772
40
0.0318721
50
287.9849695
51
295.3051367
0
ARC
8
bottom_labelLayer
10
13.6838276
20
3.1540527
40
0.056392
50
283.3056658
51
288.1191315
0
ARC
8
bottom_labelLayer
10
13.675703
20
3.1879397
40
0.0912393
50
280.0061995
51
283.373233
0
ARC
8
bottom_labelLayer
10
13.6700422
20
3.2187651
40
0.1225796
50
279.1903934
51
280.1083759
0
ARC
8
bottom_labelLayer
10
13.6669285
20
3.236417
40
0.1405026
50
275.5256702
51
279.2941769
0
ARC
8
bottom_labelLayer
10
13.6706807
20
3.1972581
40
0.1011643
50
270.8954186
51
275.5460028
0
ARC
8
bottom_labelLayer
10
13.6711585
20
3.1806195
40
0.0845206
50
270.0031369
51
270.7478361
0
ARC
8
bottom_labelLayer
10
13.6698542
20
3.1807644
40
0.0846758
50
253.7841298
51
270.8856899
0
ARC
8
bottom_labelLayer
10
13.6598226
20
3.1465555
40
0.0490265
50
190.3818776
51
253.8770115
0
ARC
8
bottom_labelLayer
10
13.710949
20
3.1603807
40
0.1019018
50
179.354645
51
192.8484566
0
ARC
8
bottom_labelLayer
10
13.7067515
20
3.1624864
40
0.0652772
50
179.6407338
51
189.7511717
0
ARC
8
bottom_labelLayer
10
13.6837098
20
3.1583755
40
0.0418723
50
189.547359
51
205.7883411
0
ARC
8
bottom_labelLayer
10
13.6742448
20
3.1540111
40
0.0314519
50
206.13087
51
221.4081413
0
ARC
8
bottom_labelLayer
10
13.6731805
20
3.1532039
40
0.03012
50
221.5956481
51
262.3500319
0
ARC
8
bottom_labelLayer
10
13.6757046
20
3.1661683
40
0.043312
50
261.3236147
51
270.1930865
0
LINE
8
bottom_labelLayer
10
13.8463584
20
3.1267629
11
13.8463584
21
3.1019582
0
LINE
8
bottom_labelLayer
10
13.7502647
20
3.1615285
11
13.7502647
21
3.2888722
0
LINE
8
bottom_labelLayer
10
13.7502647
20
3.2888722
11
13.7196006
21
3.2888722
0
LINE
8
bottom_labelLayer
10
13.7196006
20
3.2888722
11
13.7196006
21
3.3044972
0
LINE
8
bottom_labelLayer
10
13.7196006
20
3.3044972
11
13.7502647
21
3.3179738
0
LINE
8
bottom_labelLayer
10
13.7502647
20
3.3179738
11
13.7639365
21
3.3636769
0
LINE
8
bottom_labelLayer
10
13.7639365
20
3.3636769
11
13.7826865
21
3.3636769
0
LINE
8
bottom_labelLayer
10
13.7826865
20
3.3636769
11
13.7826865
21
3.3140676
0
LINE
8
bottom_labelLayer
10
13.7826865
20
3.3140676
11
13.8447959
21
3.3140676
0
LINE
8
bottom_labelLayer
10
13.8447959
20
3.3140676
11
13.8447959
21
3.2888722
0
LINE
8
bottom_labelLayer
10
13.8447959
20
3.2888722
11
13.7826865
21
3.2888722
0
LINE
8
bottom_labelLayer
10
13.7826865
20
3.2888722
11
13.7826865
21
3.1628957
0
ARC
8
bottom_labelLayer
10
13.8172825
20
3.2293532
40
0.1064968
50
269.881121
51
278.3020978
0
ARC
8
bottom_labelLayer
10
13.8189797
20
3.2165531
40
0.0935859
50
278.4054245
51
279.026822
0
ARC
8
bottom_labelLayer
10
13.8062083
20
3.2982001
40
0.1762258
50
278.9628177
51
280.5068977
0
ARC
8
bottom_labelLayer
10
13.8178072
20
3.2359415
40
0.112896
50
280.4808493
51
282.6295187
0
ARC
8
bottom_labelLayer
10
13.8277307
20
3.1918851
40
0.0677358
50
282.5866869
51
285.5800748
0
ARC
8
bottom_labelLayer
10
13.8336531
20
3.1702977
40
0.045351
50
285.6978323
51
286.2694347
0
ARC
8
bottom_labelLayer
10
13.832735
20
3.130772
40
0.0318721
50
287.9849695
51
295.3051367
0
ARC
8
bottom_labelLayer
10
13.8250386
20
3.1540527
40
0.056392
50
283.3056658
51
288.1191315
0
ARC
8
bottom_labelLayer
10
13.8169139
20
3.1879397
40
0.0912393
50
280.0061995
51
283.373233
0
ARC
8
bottom_labelLayer
10
13.8112532
20
3.2187651
40
0.1225796
50
279.1903934
51
280.1083759
0
ARC
8
bottom_labelLayer
10
13.8081394
20
3.236417
40
0.1405026
50
275.5256702
51
279.2941769
0
ARC
8
bottom_labelLayer
10
13.8118916
20
3.1972581
40
0.1011643
50
270.8954186
51
275.5460028
0
ARC
8
bottom_labelLayer
10
13.8123694
20
3.1806195
40
0.0845206
50
270.0031369
51
270.7478361
0
ARC
8
bottom_labelLayer
10
13.8110652
20
3.1807644
40
0.0846758
50
253.7841298
51
270.8856899
0
ARC
8
bottom_labelLayer
10
13.8010335
20
3.1465555
40
0.0490265
50
190.3818776
51
253.8770115
0
ARC
8
bottom_labelLayer
10
13.8521599
20
3.1603807
40
0.1019018
50
179.354645
51
192.8484566
0
ARC
8
bottom_labelLayer
10
13.8479625
20
3.1624864
40
0.0652772
50
179.6407338
51
189.7511717
0
ARC
8
bottom_labelLayer
10
13.8249207
20
3.1583755
40
0.0418723
50
189.547359
51
205.7883411
0
ARC
8
bottom_labelLayer
10
13.8154558
20
3.1540111
40
0.0314519
50
206.13087
51
221.4081413
0
ARC
8
bottom_labelLayer
10
13.8143914
20
3.1532039
40
0.03012
50
221.5956481
51
262.3500319
0
ARC
8
bottom_labelLayer
10
13.8169156
20
3.1661683
40
0.043312
50
261.3236147
51
270.1930865
0
ARC
8
bottom_labelLayer
10
13.9064275
20
3.2061035
40
0.1674738
50
349.1759766
51
0.3859435
0
ARC
8
bottom_labelLayer
10
13.9628131
20
3.1948625
40
0.1099815
50
330.2506036
51
349.4115498
0
ARC
8
bottom_labelLayer
10
13.9801737
20
3.1858369
40
0.0904338
50
318.1434308
51
329.7574593
0
ARC
8
bottom_labelLayer
10
13.9832972
20
3.1833337
40
0.0864372
50
278.8957336
51
317.9977466
0
ARC
8
bottom_labelLayer
10
13.9752285
20
3.2219945
40
0.1258967
50
269.7498124
51
279.8029106
0
ARC
8
bottom_labelLayer
10
13.9739186
20
3.2002093
40
0.1041132
50
253.541598
51
270.4183125
0
ARC
8
bottom_labelLayer
10
13.9704507
20
3.1867998
40
0.090272
50
238.8109875
51
253.2411664
0
ARC
8
bottom_labelLayer
10
13.9693344
20
3.1845564
40
0.087775
50
207.7950395
51
238.6759821
0
ARC
8
bottom_labelLayer
10
13.9853602
20
3.1943731
40
0.1065361
50
205.6555736
51
208.4464019
0
ARC
8
bottom_labelLayer
10
13.9977434
20
3.1995354
40
0.1199356
50
188.9098649
51
205.3173114
0
ARC
8
bottom_labelLayer
10
14.0394073
20
3.2065921
40
0.1621906
50
179.7740663
51
189.0930445
0
ARC
8
bottom_labelLayer
10
14.0455552
20
3.2083718
40
0.1683412
50
169.2442527
51
180.388085
0
ARC
8
bottom_labelLayer
10
13.9883894
20
3.2196717
40
0.1100719
50
150.7113718
51
169.4695822
0
ARC
8
bottom_labelLayer
10
13.9701378
20
3.229044
40
0.0895715
50
138.1757649
51
150.2286795
0
ARC
8
bottom_labelLayer
10
13.967103
20
3.2313732
40
0.0857573
50
99.175979
51
137.9832858
0
ARC
8
bottom_labelLayer
10
13.9754582
20
3.1920538
40
0.1259214
50
89.7325871
51
100.0760905
0
ARC
8
bottom_labelLayer
10
13.9771288
20
3.2090366
40
0.1089426
50
73.5220791
51
90.5695208
0
ARC
8
bottom_labelLayer
10
13.9835181
20
3.232248
40
0.0848734
50
41.1441631
51
73.2136318
0
ARC
8
bottom_labelLayer
10
13.9713201
20
3.2217635
40
0.1009577
50
13.5016203
51
41.0701942
0
ARC
8
bottom_labelLayer
10
13.9242055
20
3.2094337
40
0.1496521
50
1.1276734
51
13.8802943
0
ARC
8
bottom_labelLayer
10
13.8833196
20
3.2072585
40
0.1905778
50
359.9919259
51
1.5396018
0
ARC
8
bottom_labelLayer
10
14.0749898
20
3.206389
40
0.1641805
50
179.7059533
51
187.916232
0
ARC
8
bottom_labelLayer
10
14.0147713
20
3.1977372
40
0.1033446
50
187.7633374
51
200.097646
0
ARC
8
bottom_labelLayer
10
13.9816044
20
3.1855848
40
0.0680214
50
200.0845607
51
216.9125271
0
ARC
8
bottom_labelLayer
10
13.9694885
20
3.1769346
40
0.0531399
50
217.3011703
51
261.7097209
0
ARC
8
bottom_labelLayer
10
13.975113
20
3.2037691
40
0.0805228
50
260.5024687
51
270.2468821
0
ARC
8
bottom_labelLayer
10
13.9761846
20
3.1985521
40
0.0753083
50
269.4486893
51
284.7259451
0
ARC
8
bottom_labelLayer
10
13.9821472
20
3.1764415
40
0.0524087
50
284.5659952
51
322.6332968
0
ARC
8
bottom_labelLayer
10
13.9682082
20
3.1865111
40
0.0695997
50
323.0093111
51
342.6394859
0
ARC
8
bottom_labelLayer
10
13.9283414
20
3.1995413
40
0.1115399
50
342.3615719
51
353.7538372
0
ARC
8
bottom_labelLayer
10
13.8695043
20
3.2066328
40
0.1708005
50
353.5364709
51
0.2008633
0
ARC
8
bottom_labelLayer
10
13.8785193
20
3.2080572
40
0.1617865
50
359.7076176
51
7.8965616
0
ARC
8
bottom_labelLayer
10
13.9377788
20
3.2165501
40
0.1019224
50
7.7442274
51
20.0691467
0
ARC
8
bottom_labelLayer
10
13.9707883
20
3.2286628
40
0.0667608
50
20.0263256
51
37.4341838
0
ARC
8
bottom_labelLayer
10
13.9817471
20
3.2364383
40
0.0533348
50
37.9576074
51
80.4006228
0
ARC
8
bottom_labelLayer
10
13.9755215
20
3.2086579
40
0.0817782
50
79.3455368
51
90.3168042
0
ARC
8
bottom_labelLayer
10
13.9743706
20
3.213277
40
0.0771609
50
89.4811205
51
103.8809013
0
ARC
8
bottom_labelLayer
10
13.9678868
20
3.2379662
40
0.0516387
50
103.4687874
51
142.3117896
0
ARC
8
bottom_labelLayer
10
13.9804902
20
3.2291025
40
0.067035
50
142.9023963
51
162.3749438
0
ARC
8
bottom_labelLayer
10
14.0202193
20
3.2158638
40
0.1089092
50
162.065709
51
173.1666032
0
ARC
8
bottom_labelLayer
10
14.0821243
20
3.2079699
40
0.1713143
50
173.0086608
51
180.2469003
0
LINE
8
bottom_labelLayer
10
14.4360068
20
3.1000051
11
14.403585
21
3.1000051
0
LINE
8
bottom_labelLayer
10
14.403585
20
3.1000051
11
14.403585
21
3.2392629
0
LINE
8
bottom_labelLayer
10
14.2994834
20
3.2195363
11
14.2994834
21
3.1000051
0
LINE
8
bottom_labelLayer
10
14.2994834
20
3.1000051
11
14.2670615
21
3.1000051
0
LINE
8
bottom_labelLayer
10
14.2670615
20
3.1000051
11
14.2670615
21
3.2392629
0
LINE
8
bottom_labelLayer
10
14.1631553
20
3.2123097
11
14.1631553
21
3.1000051
0
LINE
8
bottom_labelLayer
10
14.1631553
20
3.1000051
11
14.1307334
21
3.1000051
0
LINE
8
bottom_labelLayer
10
14.1307334
20
3.1000051
11
14.1307334
21
3.3140676
0
LINE
8
bottom_labelLayer
10
14.1307334
20
3.3140676
11
14.1571006
21
3.3140676
0
LINE
8
bottom_labelLayer
10
14.1571006
20
3.3140676
11
14.162374
21
3.2847707
0
LINE
8
bottom_labelLayer
10
14.162374
20
3.2847707
11
14.1639365
21
3.2847707
0
LINE
8
bottom_labelLayer
10
14.2928428
20
3.2816457
11
14.2944053
21
3.2816457
0
LINE
8
bottom_labelLayer
10
14.4360068
20
3.2396535
11
14.4360068
21
3.1000051
0
ARC
8
bottom_labelLayer
10
14.3079421
20
3.2397723
40
0.0956443
50
359.6948047
51
8.1473712
0
ARC
8
bottom_labelLayer
10
14.343179
20
3.2449881
40
0.0600241
50
7.9857575
51
20.7964133
0
ARC
8
bottom_labelLayer
10
14.3626437
20
3.2524459
40
0.0391798
50
20.7071255
51
40.0220585
0
ARC
8
bottom_labelLayer
10
14.3669147
20
3.2552398
40
0.0341178
50
41.0416381
51
73.1789293
0
ARC
8
bottom_labelLayer
10
14.3607349
20
3.2365512
40
0.0537976
50
72.6387381
51
86.2578427
0
ARC
8
bottom_labelLayer
10
14.3587531
20
3.2152232
40
0.0752117
50
85.8117466
51
90.0685855
0
ARC
8
bottom_labelLayer
10
14.3580255
20
3.2070049
40
0.0834323
50
89.5621346
51
101.2953738
0
ARC
8
bottom_labelLayer
10
14.3517433
20
3.2370879
40
0.052702
50
101.0037027
51
121.7830439
0
ARC
8
bottom_labelLayer
10
14.3469626
20
3.2456225
40
0.0429313
50
122.3588332
51
140.2890785
0
ARC
8
bottom_labelLayer
10
14.3555604
20
3.2393175
40
0.0535776
50
140.9766255
51
161.1695953
0
ARC
8
bottom_labelLayer
10
14.3879413
20
3.2277949
40
0.0879457
50
160.8736027
51
172.526949
0
ARC
8
bottom_labelLayer
10
14.4420539
20
3.2203239
40
0.1425708
50
172.3783839
51
180.1827334
0
ARC
8
bottom_labelLayer
10
14.437965
20
3.2196196
40
0.1384815
50
179.896723
51
180.0344531
0
ARC
8
bottom_labelLayer
10
14.1714186
20
3.2397723
40
0.0956443
50
359.6948047
51
8.1473712
0
ARC
8
bottom_labelLayer
10
14.2066555
20
3.2449881
40
0.0600241
50
7.9857575
51
20.7964133
0
ARC
8
bottom_labelLayer
10
14.2261202
20
3.2524459
40
0.0391798
50
20.7071255
51
40.0220585
0
ARC
8
bottom_labelLayer
10
14.2304808
20
3.2553024
40
0.0340092
50
41.0610995
51
72.8994877
0
ARC
8
bottom_labelLayer
10
14.2241802
20
3.2365414
40
0.0537958
50
72.3611764
51
85.9551049
0
ARC
8
bottom_labelLayer
10
14.222052
20
3.2145428
40
0.0758919
50
85.5238924
51
90.0812476
0
ARC
8
bottom_labelLayer
10
14.2213222
20
3.2099154
40
0.0805217
50
89.5573339
51
101.4839456
0
ARC
8
bottom_labelLayer
10
14.2151423
20
3.2388674
40
0.0509199
50
101.1552766
51
123.0656581
0
ARC
8
bottom_labelLayer
10
14.2109401
20
3.2461877
40
0.0424952
50
123.7024744
51
142.3028943
0
ARC
8
bottom_labelLayer
10
14.2207819
20
3.2395107
40
0.0543706
50
143.0774642
51
161.391789
0
ARC
8
bottom_labelLayer
10
14.2604529
20
3.2254993
40
0.0964408
50
161.0233829
51
171.4466388
0
ARC
8
bottom_labelLayer
10
14.3261368
20
3.2152127
40
0.1629245
50
171.3048974
51
178.3502861
0
ARC
8
bottom_labelLayer
10
14.3888831
20
3.2124153
40
0.2257277
50
178.0990572
51
180.026804
0
ARC
8
bottom_labelLayer
10
14.2188631
20
3.2524711
40
0.0637196
50
117.1206602
51
149.5423335
0
ARC
8
bottom_labelLayer
10
14.2253665
20
3.2409128
40
0.0769736
50
93.8341331
51
117.507205
0
ARC
8
bottom_labelLayer
10
14.2271655
20
3.2249923
40
0.0929817
50
89.9677842
51
94.2842354
0
ARC
8
bottom_labelLayer
10
14.22824
20
3.2118315
40
0.1061473
50
77.5574431
51
90.5517932
0
ARC
8
bottom_labelLayer
10
14.2380881
20
3.2541918
40
0.0626618
50
52.7034225
51
78.0052588
0
ARC
8
bottom_labelLayer
10
14.241597
20
3.2607226
40
0.0553524
50
22.2096915
51
51.4965503
0
ARC
8
bottom_labelLayer
10
14.3531381
20
3.2479864
40
0.0676941
50
119.4039741
51
150.1832975
0
ARC
8
bottom_labelLayer
10
14.3605173
20
3.2368062
40
0.0810623
50
118.2574706
51
120.0681191
0
ARC
8
bottom_labelLayer
10
14.3606255
20
3.2357338
40
0.0820591
50
95.8636826
51
117.9695093
0
ARC
8
bottom_labelLayer
10
14.3634026
20
3.215658
40
0.1023159
50
89.9197239
51
96.2621364
0
ARC
8
bottom_labelLayer
10
14.3642951
20
3.2052766
40
0.1126997
50
79.9365478
51
90.3808739
0
ARC
8
bottom_labelLayer
10
14.3718016
20
3.2459409
40
0.0713498
50
62.9728731
51
80.1657373
0
ARC
8
bottom_labelLayer
10
14.3796531
20
3.2620506
40
0.0534326
50
44.2292186
51
62.6228342
0
ARC
8
bottom_labelLayer
10
14.3773167
20
3.2610187
40
0.0558336
50
19.5617216
51
43.3156273
0
ARC
8
bottom_labelLayer
10
14.3434035
20
3.2482824
40
0.092056
50
7.5044978
51
19.9639579
0
ARC
8
bottom_labelLayer
10
14.2872827
20
3.2404028
40
0.1487261
50
359.7113152
51
7.6903628
0
ENDSEC
0
EOF