G04 #@! TF.GenerationSoftware,KiCad,Pcbnew,(5.1.2-1)-1*
G04 #@! TF.CreationDate,2019-05-14T21:51:55-07:00*
G04 #@! TF.ProjectId,BoxSide3,426f7853-6964-4653-932e-6b696361645f,rev?*
G04 #@! TF.SameCoordinates,Original*
G04 #@! TF.FileFunction,Profile,NP*
%FSLAX46Y46*%
G04 Gerber Fmt 4.6, Leading zero omitted, Abs format (unit mm)*
G04 Created by KiCad (PCBNEW (5.1.2-1)-1) date 2019-05-14 21:51:55*
%MOMM*%
%LPD*%
G04 APERTURE LIST*
%ADD10C,0.050800*%
G04 APERTURE END LIST*
D10*
X189092222Y-66970476D02*
X185785065Y-66970476D01*
X179092233Y-40261656D02*
X179092233Y-36970476D01*
X184092223Y-44894537D02*
X184092223Y-41970476D01*
X139092242Y-67323256D02*
X139092242Y-77323246D01*
X142476836Y-67323256D02*
X139092242Y-67323256D01*
X144092233Y-65637811D02*
G75*
G02X142476836Y-67323256I35235J-1650623D01*
G01*
X142461524Y-77323246D02*
G75*
G02X144092232Y-78849629I1646297J124544D01*
G01*
X139092242Y-77323246D02*
X142461525Y-77323246D01*
X189092222Y-76970476D02*
X189092222Y-66970476D01*
X147092868Y-41970476D02*
X144092232Y-41970476D01*
X148739453Y-40259003D02*
G75*
G02X147092868Y-41970476I3307J-1650997D01*
G01*
X189092222Y-46617696D02*
X185786199Y-46617696D01*
X184092223Y-41970476D02*
X180835739Y-41970476D01*
X185786503Y-56617687D02*
X189092222Y-56617687D01*
X158739442Y-40259033D02*
X158739442Y-36970476D01*
X169092234Y-40265030D02*
G75*
G02X167301369Y-41970476I-140973J-1644970D01*
G01*
X167301369Y-41970476D02*
X160399892Y-41970476D01*
X148739452Y-36970476D02*
X148739452Y-40259003D01*
X184092223Y-81970466D02*
X184092223Y-78427743D01*
X144092233Y-45319726D02*
G75*
G02X142562170Y-46970476I120932J-1646565D01*
G01*
X142354656Y-56970466D02*
G75*
G02X144092232Y-58516754I1647829J102271D01*
G01*
X184092223Y-58202577D02*
G75*
G02X185786503Y-56617686I44580J1650398D01*
G01*
X179445013Y-83799675D02*
G75*
G02X181143111Y-81970466I56851J1650021D01*
G01*
X169092232Y-36970476D02*
X169092232Y-40265029D01*
X142562170Y-46970476D02*
X139092242Y-46970476D01*
X144092232Y-58516754D02*
X144092232Y-65637810D01*
X184092223Y-65225042D02*
X184092223Y-58202577D01*
X181143111Y-81970466D02*
X184092223Y-81970466D01*
X160737028Y-81970466D02*
X167739933Y-81970466D01*
X159092222Y-83502960D02*
G75*
G02X160737028Y-81970466I79138J1563984D01*
G01*
X158739442Y-36970476D02*
X148739452Y-36970476D01*
X179092233Y-36970476D02*
X169092232Y-36970476D01*
X185776468Y-76970476D02*
X189092222Y-76970476D01*
X179445012Y-86970465D02*
X179445012Y-83799675D01*
X169445013Y-86970465D02*
X179445012Y-86970465D01*
X185785065Y-66970476D02*
G75*
G02X184092222Y-65225042I-1648262J95036D01*
G01*
X180835739Y-41970477D02*
G75*
G02X179092232Y-40261656I-1649892J60477D01*
G01*
X144092232Y-41970476D02*
X144092232Y-45319726D01*
X185786199Y-46617696D02*
G75*
G02X184092222Y-44894537I-1649396J72761D01*
G01*
X184092223Y-78427743D02*
G75*
G02X185776468Y-76970476I44580J1650398D01*
G01*
X139092242Y-56970466D02*
X142354655Y-56970466D01*
X139092242Y-46970476D02*
X139092242Y-56970466D01*
X169445013Y-83694374D02*
X169445013Y-86970465D01*
X167739932Y-81970466D02*
G75*
G02X169445012Y-83694374I1649348J-73849D01*
G01*
X189092222Y-56617687D02*
X189092222Y-46617696D01*
X159092223Y-86970465D02*
X159092223Y-83502959D01*
X149092232Y-86970465D02*
X159092223Y-86970465D01*
X144092232Y-81970466D02*
X147513413Y-81970466D01*
X144092232Y-78849629D02*
X144092232Y-81970466D01*
X149092232Y-83588411D02*
X149092232Y-86970465D01*
X147513412Y-81970466D02*
G75*
G02X149092232Y-83588411I1650701J31490D01*
G01*
X160399893Y-41970477D02*
G75*
G02X158739442Y-40259033I-1649893J60477D01*
G01*
X129402222Y-66970476D02*
X126095065Y-66970476D01*
X119402233Y-40261656D02*
X119402233Y-36970476D01*
X124402223Y-44894537D02*
X124402223Y-41970476D01*
X79402242Y-67323256D02*
X79402242Y-77323246D01*
X82786836Y-67323256D02*
X79402242Y-67323256D01*
X84402233Y-65637811D02*
G75*
G02X82786836Y-67323256I35235J-1650623D01*
G01*
X82771524Y-77323246D02*
G75*
G02X84402232Y-78849629I1646297J124544D01*
G01*
X79402242Y-77323246D02*
X82771525Y-77323246D01*
X129402222Y-76970476D02*
X129402222Y-66970476D01*
X87402868Y-41970476D02*
X84402232Y-41970476D01*
X89049453Y-40259003D02*
G75*
G02X87402868Y-41970476I3307J-1650997D01*
G01*
X129402222Y-46617696D02*
X126096199Y-46617696D01*
X124402223Y-41970476D02*
X121145739Y-41970476D01*
X126096503Y-56617687D02*
X129402222Y-56617687D01*
X99049442Y-40259033D02*
X99049442Y-36970476D01*
X109402234Y-40265030D02*
G75*
G02X107611369Y-41970476I-140973J-1644970D01*
G01*
X107611369Y-41970476D02*
X100709892Y-41970476D01*
X89049452Y-36970476D02*
X89049452Y-40259003D01*
X124402223Y-81970466D02*
X124402223Y-78427743D01*
X84402233Y-45319726D02*
G75*
G02X82872170Y-46970476I120932J-1646565D01*
G01*
X82664656Y-56970466D02*
G75*
G02X84402232Y-58516754I1647829J102271D01*
G01*
X124402223Y-58202577D02*
G75*
G02X126096503Y-56617686I44580J1650398D01*
G01*
X119755013Y-83799675D02*
G75*
G02X121453111Y-81970466I56851J1650021D01*
G01*
X109402232Y-36970476D02*
X109402232Y-40265029D01*
X82872170Y-46970476D02*
X79402242Y-46970476D01*
X84402232Y-58516754D02*
X84402232Y-65637810D01*
X124402223Y-65225042D02*
X124402223Y-58202577D01*
X121453111Y-81970466D02*
X124402223Y-81970466D01*
X101047028Y-81970466D02*
X108049933Y-81970466D01*
X99402222Y-83502960D02*
G75*
G02X101047028Y-81970466I79138J1563984D01*
G01*
X99049442Y-36970476D02*
X89049452Y-36970476D01*
X119402233Y-36970476D02*
X109402232Y-36970476D01*
X126086468Y-76970476D02*
X129402222Y-76970476D01*
X119755012Y-86970465D02*
X119755012Y-83799675D01*
X109755013Y-86970465D02*
X119755012Y-86970465D01*
X126095065Y-66970476D02*
G75*
G02X124402222Y-65225042I-1648262J95036D01*
G01*
X121145739Y-41970477D02*
G75*
G02X119402232Y-40261656I-1649892J60477D01*
G01*
X84402232Y-41970476D02*
X84402232Y-45319726D01*
X126096199Y-46617696D02*
G75*
G02X124402222Y-44894537I-1649396J72761D01*
G01*
X124402223Y-78427743D02*
G75*
G02X126086468Y-76970476I44580J1650398D01*
G01*
X79402242Y-56970466D02*
X82664655Y-56970466D01*
X79402242Y-46970476D02*
X79402242Y-56970466D01*
X109755013Y-83694374D02*
X109755013Y-86970465D01*
X108049932Y-81970466D02*
G75*
G02X109755012Y-83694374I1649348J-73849D01*
G01*
X129402222Y-56617687D02*
X129402222Y-46617696D01*
X99402223Y-86970465D02*
X99402223Y-83502959D01*
X89402232Y-86970465D02*
X99402223Y-86970465D01*
X84402232Y-81970466D02*
X87823413Y-81970466D01*
X84402232Y-78849629D02*
X84402232Y-81970466D01*
X89402232Y-83588411D02*
X89402232Y-86970465D01*
X87823412Y-81970466D02*
G75*
G02X89402232Y-83588411I1650701J31490D01*
G01*
X100709893Y-41970477D02*
G75*
G02X99049442Y-40259033I-1649893J60477D01*
G01*
M02*
